<?xml version="1.0" encoding="UTF-8"?>
<svg id="_レイヤー_2" data-name="レイヤー 2" xmlns="http://www.w3.org/2000/svg" viewBox="0 0 586.01 264">
  <defs>
    <style>
      .cls-1, .cls-2, .cls-3, .cls-4, .cls-5, .cls-6, .cls-7 {
        fill: none;
      }

      .cls-2 {
        stroke-width: 20px;
      }

      .cls-2, .cls-3 {
        stroke: #ff6d99;
      }

      .cls-2, .cls-3, .cls-4, .cls-5, .cls-6, .cls-7 {
        stroke-linecap: round;
        stroke-linejoin: round;
      }

      .cls-3 {
        stroke-width: 35px;
      }

      .cls-8, .cls-9, .cls-10 {
        stroke-miterlimit: 10;
      }

      .cls-8, .cls-9, .cls-10, .cls-6, .cls-7 {
        stroke: #231816;
      }

      .cls-8, .cls-11 {
        fill: #ff6d99;
      }

      .cls-9 {
        fill: #ffa;
      }

      .cls-10 {
        fill: #8efad7;
      }

      .cls-4 {
        stroke-width: 22px;
      }

      .cls-4, .cls-5 {
        stroke: #fff;
      }

      .cls-5 {
        stroke-width: 12px;
      }

      .cls-6 {
        stroke-width: 5px;
      }

      .cls-7 {
        stroke-width: 3px;
      }
    </style>
  </defs>
  <g id="layout">
    <g>
      <g>
        <g>
          <path class="cls-2" d="M137.41,249.33l-4.17-1.01s2.25-6.15,2.65-8.44l5.43,1.2s-3.05,6.92-3.92,8.25ZM146.3,249.72s-2.21-13.4-1.92-16.69l4.67-.73s1,10.67.83,12.54c0,0,5.42-.05,9.02-.3l1.54-4.87s1.89,3.42,2.68,7.88c0,0-9.26,3.35-16.82,2.17ZM151.41,231.77l-.43-4.5,3.62.02.15,3.72s-1.17.73-3.34.75ZM158.72,231.29s-.33-3.87-.5-4.73l3.63.1.08,4.21-3.21.42Z"/>
          <path class="cls-2" d="M182.66,234l-.46-3.61s-3.52.57-6.8,1.12l-.85-5.06s4.87-.35,7.09-.62l-1.12-4.55,5.29-.56.28,4.59,5.63-1.12.47,5.58s-3.15.25-6.2.73c0,0-.06,1.78.06,2.89,6.38-.87,9.96,2.53,10.78,6.15.65,2.71-.39,5.87-2.71,7.85.46-4.43-.57-6.58-2.33-8-1.17-.84-3.03-1.65-5.23-1.22.47,4.09-.1,8.58-4.14,9.2-3.4.52-6.1-1.45-6.71-4.96-.59-3.36,1.31-7.42,6.96-8.41ZM181.08,243.45c1.03-.19,1.43-2.8,1.24-4.67-1.4.07-3.2.94-3.13,2.78-.01,1.05.79,2.13,1.89,1.89ZM197.44,229.23s-1.57-3.49-1.91-3.98l3.77-1.64s1.17,2.33,1.8,4.07l-3.66,1.55Z"/>
          <path class="cls-2" d="M217.09,228.33s-3.06-5.75-3.66-8.38l5.47-1.5c.67,2.91,1.03,4.44,1.97,6.47l4.95-4.18,4.04,4.4c-5.14,1.22-10.02,4.51-8.62,9.39.96,3.36,6.8,3.07,9.7,1.19l-.14,6.37c-7.89,2.24-14.2,1.13-16.02-5.47-1.09-3.87.43-6.64,2.31-8.29ZM232.85,218.27l.31,2.94s-1,.39-1.64.82l-1.09-3.06,2.42-.7ZM234.83,221.11l-.85-3.09,2.46-.7.03,2.97s-1,.39-1.64.82Z"/>
          <path class="cls-2" d="M270.53,230.07c.69,6.6-5.22,9.64-10.77,8.89-3.22-.42-4.41-3.32-4.07-5.08.25-1.47,1.5-2.97,4.02-3.12,1.16-.04,3.27.54,4.22,3.05.82-.21,1.8-1.64,1.65-3.07-.45-4.26-5.61-4.76-9.29-4.21l4.37-7.38s-5.38.81-7.17,1l-.62-5.08s10.38-1.13,14.41-1.39c-1.67,4.36-2.75,6.32-5.01,10.1,1.73.06,7.66.52,8.26,6.29ZM261.03,234.65c-.16-.38-.57-.83-1.02-.94-.7-.13-1.37.35-1.18.97.19.62.72.73,1.01.78.88-.01,1.26-.62,1.2-.81Z"/>
          <path class="cls-2" d="M287.9,225.47l-.67-5.24c7.83-.86,23.25-2.6,24.97-2.74l.44,5.38s-4.59.36-8.39.56c.86,5.14-1.27,12.04-10.72,12.79,5.46-4.68,6.29-9.39,5.35-12.59,0,0-6.58,1.25-10.99,1.84ZM291.64,210.12s11.54-1.17,15.06-1.3l.3,4.35s-10.52,2.03-14.75,2.32l-.6-5.37ZM309.96,213.06l-1.09-3.06,2.46-.7.31,2.94s-1,.39-1.68.82ZM313.32,212.14l-.85-3.09,2.42-.7.07,2.97s-1.01.39-1.64.82Z"/>
          <path class="cls-2" d="M330.03,217.98s-4.88.59-5.99.79l-.74-5.15s3.91-.29,6.42-.55l-.9-5.49,5.14-.46.38,5.55s1.85-.03,6.17-.57l-1.5-6.6,6-.67s.59,5.97.67,6.73l5.26-.87.33,5.07s-2.35.21-5.18.46c1.29,8.11-1.93,13.39-9.93,16.08,4.6-5.55,5.61-9.8,4.65-15.45,0,0-4.42.42-6.48.72l1.03,5.56-4.65.53-.68-5.68ZM347.47,204.49l2.46-.7.31,2.94s-1,.39-1.68.82l-1.09-3.06ZM351.07,203.55l2.42-.7.07,2.97s-1,.39-1.64.82l-.85-3.09Z"/>
          <path class="cls-2" d="M362.55,214.69c6.88-4.5,13.76-10.25,15.87-15.06l6.4,4.31s-2.39,4.39-6.19,7.65l2.38,14.99-5.45.57-1.1-13.96c-3.72,1.32-7.46,2.07-11.91,1.49Z"/>
          <path class="cls-2" d="M410.7,206.77s-5.36-2.37-6.34-2.91l2.33-4.63s3.4.97,6.09,2.09l-2.08,5.45ZM406.36,216.72c10.02-1.86,15.09-6.37,20.14-12.29-.44,8.77-6.2,15.65-16.84,18.46l-3.3-6.17Z"/>
          <path class="cls-2" d="M462.32,205.41s-3.38,1.16-4.32,1.74c0,0,1.04,2.59,1.04,3.35l-3.35,1.4s-.34-2.82-.68-2.66c-2.63,1.32-3.86,2.7-3.39,4.82.65,2.71,4.51,1.58,7.66.6l.78,5.11c-3.78,1.52-10.41,1.17-12.27-3.13-1.87-4.35,1.47-8.6,5.75-11.14-.49-.79-1.42-1.26-5-.56l-.36-4.59q-4.17.48-5.28.67l-.9-5.09s4.81-.54,5.31-.72l-.7-3.95,5.26-.79s-.1,4.07.03,4.5c0,0,5.9-.82,6.85-1l.41,4.62s-6.44.72-7.71.85c-.04,0-.02,1.69-.01,2.17,2.14-.31,3.92.55,4.58,1.85,0,0,2.67-1.41,4.25-2.46l2.07,4.41Z"/>
        </g>
        <g>
          <path class="cls-5" d="M137.41,249.33l-4.17-1.01s2.25-6.15,2.65-8.44l5.43,1.2s-3.05,6.92-3.92,8.25ZM146.3,249.72s-2.21-13.4-1.92-16.69l4.67-.73s1,10.67.83,12.54c0,0,5.42-.05,9.02-.3l1.54-4.87s1.89,3.42,2.68,7.88c0,0-9.26,3.35-16.82,2.17ZM151.41,231.77l-.43-4.5,3.62.02.15,3.72s-1.17.73-3.34.75ZM158.72,231.29s-.33-3.87-.5-4.73l3.63.1.08,4.21-3.21.42Z"/>
          <path class="cls-5" d="M182.66,234l-.46-3.61s-3.52.57-6.8,1.12l-.85-5.06s4.87-.35,7.09-.62l-1.12-4.55,5.29-.56.28,4.59,5.63-1.12.47,5.58s-3.15.25-6.2.73c0,0-.06,1.78.06,2.89,6.38-.87,9.96,2.53,10.78,6.15.65,2.71-.39,5.87-2.71,7.85.46-4.43-.57-6.58-2.33-8-1.17-.84-3.03-1.65-5.23-1.22.47,4.09-.1,8.58-4.14,9.2-3.4.52-6.1-1.45-6.71-4.96-.59-3.36,1.31-7.42,6.96-8.41ZM181.08,243.45c1.03-.19,1.43-2.8,1.24-4.67-1.4.07-3.2.94-3.13,2.78-.01,1.05.79,2.13,1.89,1.89ZM197.44,229.23s-1.57-3.49-1.91-3.98l3.77-1.64s1.17,2.33,1.8,4.07l-3.66,1.55Z"/>
          <path class="cls-5" d="M217.09,228.33s-3.06-5.75-3.66-8.38l5.47-1.5c.67,2.91,1.03,4.44,1.97,6.47l4.95-4.18,4.04,4.4c-5.14,1.22-10.02,4.51-8.62,9.39.96,3.36,6.8,3.07,9.7,1.19l-.14,6.37c-7.89,2.24-14.2,1.13-16.02-5.47-1.09-3.87.43-6.64,2.31-8.29ZM232.85,218.27l.31,2.94s-1,.39-1.64.82l-1.09-3.06,2.42-.7ZM234.83,221.11l-.85-3.09,2.46-.7.03,2.97s-1,.39-1.64.82Z"/>
          <path class="cls-5" d="M270.53,230.07c.69,6.6-5.22,9.64-10.77,8.89-3.22-.42-4.41-3.32-4.07-5.08.25-1.47,1.5-2.97,4.02-3.12,1.16-.04,3.27.54,4.22,3.05.82-.21,1.8-1.64,1.65-3.07-.45-4.26-5.61-4.76-9.29-4.21l4.37-7.38s-5.38.81-7.17,1l-.62-5.08s10.38-1.13,14.41-1.39c-1.67,4.36-2.75,6.32-5.01,10.1,1.73.06,7.66.52,8.26,6.29ZM261.03,234.65c-.16-.38-.57-.83-1.02-.94-.7-.13-1.37.35-1.18.97.19.62.72.73,1.01.78.88-.01,1.26-.62,1.2-.81Z"/>
          <path class="cls-5" d="M287.9,225.47l-.67-5.24c7.83-.86,23.25-2.6,24.97-2.74l.44,5.38s-4.59.36-8.39.56c.86,5.14-1.27,12.04-10.72,12.79,5.46-4.68,6.29-9.39,5.35-12.59,0,0-6.58,1.25-10.99,1.84ZM291.64,210.12s11.54-1.17,15.06-1.3l.3,4.35s-10.52,2.03-14.75,2.32l-.6-5.37ZM309.96,213.06l-1.09-3.06,2.46-.7.31,2.94s-1,.39-1.68.82ZM313.32,212.14l-.85-3.09,2.42-.7.07,2.97s-1.01.39-1.64.82Z"/>
          <path class="cls-5" d="M330.03,217.98s-4.88.59-5.99.79l-.74-5.15s3.91-.29,6.42-.55l-.9-5.49,5.14-.46.38,5.55s1.85-.03,6.17-.57l-1.5-6.6,6-.67s.59,5.97.67,6.73l5.26-.87.33,5.07s-2.35.21-5.18.46c1.29,8.11-1.93,13.39-9.93,16.08,4.6-5.55,5.61-9.8,4.65-15.45,0,0-4.42.42-6.48.72l1.03,5.56-4.65.53-.68-5.68ZM347.47,204.49l2.46-.7.31,2.94s-1,.39-1.68.82l-1.09-3.06ZM351.07,203.55l2.42-.7.07,2.97s-1,.39-1.64.82l-.85-3.09Z"/>
          <path class="cls-5" d="M362.55,214.69c6.88-4.5,13.76-10.25,15.87-15.06l6.4,4.31s-2.39,4.39-6.19,7.65l2.38,14.99-5.45.57-1.1-13.96c-3.72,1.32-7.46,2.07-11.91,1.49Z"/>
          <path class="cls-5" d="M410.7,206.77s-5.36-2.37-6.34-2.91l2.33-4.63s3.4.97,6.09,2.09l-2.08,5.45ZM406.36,216.72c10.02-1.86,15.09-6.37,20.14-12.29-.44,8.77-6.2,15.65-16.84,18.46l-3.3-6.17Z"/>
          <path class="cls-5" d="M462.32,205.41s-3.38,1.16-4.32,1.74c0,0,1.04,2.59,1.04,3.35l-3.35,1.4s-.34-2.82-.68-2.66c-2.63,1.32-3.86,2.7-3.39,4.82.65,2.71,4.51,1.58,7.66.6l.78,5.11c-3.78,1.52-10.41,1.17-12.27-3.13-1.87-4.35,1.47-8.6,5.75-11.14-.49-.79-1.42-1.26-5-.56l-.36-4.59q-4.17.48-5.28.67l-.9-5.09s4.81-.54,5.31-.72l-.7-3.95,5.26-.79s-.1,4.07.03,4.5c0,0,5.9-.82,6.85-1l.41,4.62s-6.44.72-7.71.85c-.04,0-.02,1.69-.01,2.17,2.14-.31,3.92.55,4.58,1.85,0,0,2.67-1.41,4.25-2.46l2.07,4.41Z"/>
        </g>
        <g>
          <path class="cls-7" d="M137.41,249.33l-4.17-1.01s2.25-6.15,2.65-8.44l5.43,1.2s-3.05,6.92-3.92,8.25ZM146.3,249.72s-2.21-13.4-1.92-16.69l4.67-.73s1,10.67.83,12.54c0,0,5.42-.05,9.02-.3l1.54-4.87s1.89,3.42,2.68,7.88c0,0-9.26,3.35-16.82,2.17ZM151.41,231.77l-.43-4.5,3.62.02.15,3.72s-1.17.73-3.34.75ZM158.72,231.29s-.33-3.87-.5-4.73l3.63.1.08,4.21-3.21.42Z"/>
          <path class="cls-7" d="M182.66,234l-.46-3.61s-3.52.57-6.8,1.12l-.85-5.06s4.87-.35,7.09-.62l-1.12-4.55,5.29-.56.28,4.59,5.63-1.12.47,5.58s-3.15.25-6.2.73c0,0-.06,1.78.06,2.89,6.38-.87,9.96,2.53,10.78,6.15.65,2.71-.39,5.87-2.71,7.85.46-4.43-.57-6.58-2.33-8-1.17-.84-3.03-1.65-5.23-1.22.47,4.09-.1,8.58-4.14,9.2-3.4.52-6.1-1.45-6.71-4.96-.59-3.36,1.31-7.42,6.96-8.41ZM181.08,243.45c1.03-.19,1.43-2.8,1.24-4.67-1.4.07-3.2.94-3.13,2.78-.01,1.05.79,2.13,1.89,1.89ZM197.44,229.23s-1.57-3.49-1.91-3.98l3.77-1.64s1.17,2.33,1.8,4.07l-3.66,1.55Z"/>
          <path class="cls-7" d="M217.09,228.33s-3.06-5.75-3.66-8.38l5.47-1.5c.67,2.91,1.03,4.44,1.97,6.47l4.95-4.18,4.04,4.4c-5.14,1.22-10.02,4.51-8.62,9.39.96,3.36,6.8,3.07,9.7,1.19l-.14,6.37c-7.89,2.24-14.2,1.13-16.02-5.47-1.09-3.87.43-6.64,2.31-8.29ZM232.85,218.27l.31,2.94s-1,.39-1.64.82l-1.09-3.06,2.42-.7ZM234.83,221.11l-.85-3.09,2.46-.7.03,2.97s-1,.39-1.64.82Z"/>
          <path class="cls-7" d="M270.53,230.07c.69,6.6-5.22,9.64-10.77,8.89-3.22-.42-4.41-3.32-4.07-5.08.25-1.47,1.5-2.97,4.02-3.12,1.16-.04,3.27.54,4.22,3.05.82-.21,1.8-1.64,1.65-3.07-.45-4.26-5.61-4.76-9.29-4.21l4.37-7.38s-5.38.81-7.17,1l-.62-5.08s10.38-1.13,14.41-1.39c-1.67,4.36-2.75,6.32-5.01,10.1,1.73.06,7.66.52,8.26,6.29ZM261.03,234.65c-.16-.38-.57-.83-1.02-.94-.7-.13-1.37.35-1.18.97.19.62.72.73,1.01.78.88-.01,1.26-.62,1.2-.81Z"/>
          <path class="cls-7" d="M287.9,225.47l-.67-5.24c7.83-.86,23.25-2.6,24.97-2.74l.44,5.38s-4.59.36-8.39.56c.86,5.14-1.27,12.04-10.72,12.79,5.46-4.68,6.29-9.39,5.35-12.59,0,0-6.58,1.25-10.99,1.84ZM291.64,210.12s11.54-1.17,15.06-1.3l.3,4.35s-10.52,2.03-14.75,2.32l-.6-5.37ZM309.96,213.06l-1.09-3.06,2.46-.7.31,2.94s-1,.39-1.68.82ZM313.32,212.14l-.85-3.09,2.42-.7.07,2.97s-1.01.39-1.64.82Z"/>
          <path class="cls-7" d="M330.03,217.98s-4.88.59-5.99.79l-.74-5.15s3.91-.29,6.42-.55l-.9-5.49,5.14-.46.38,5.55s1.85-.03,6.17-.57l-1.5-6.6,6-.67s.59,5.97.67,6.73l5.26-.87.33,5.07s-2.35.21-5.18.46c1.29,8.11-1.93,13.39-9.93,16.08,4.6-5.55,5.61-9.8,4.65-15.45,0,0-4.42.42-6.48.72l1.03,5.56-4.65.53-.68-5.68ZM347.47,204.49l2.46-.7.31,2.94s-1,.39-1.68.82l-1.09-3.06ZM351.07,203.55l2.42-.7.07,2.97s-1,.39-1.64.82l-.85-3.09Z"/>
          <path class="cls-7" d="M362.55,214.69c6.88-4.5,13.76-10.25,15.87-15.06l6.4,4.31s-2.39,4.39-6.19,7.65l2.38,14.99-5.45.57-1.1-13.96c-3.72,1.32-7.46,2.07-11.91,1.49Z"/>
          <path class="cls-7" d="M410.7,206.77s-5.36-2.37-6.34-2.91l2.33-4.63s3.4.97,6.09,2.09l-2.08,5.45ZM406.36,216.72c10.02-1.86,15.09-6.37,20.14-12.29-.44,8.77-6.2,15.65-16.84,18.46l-3.3-6.17Z"/>
          <path class="cls-7" d="M462.32,205.41s-3.38,1.16-4.32,1.74c0,0,1.04,2.59,1.04,3.35l-3.35,1.4s-.34-2.82-.68-2.66c-2.63,1.32-3.86,2.7-3.39,4.82.65,2.71,4.51,1.58,7.66.6l.78,5.11c-3.78,1.52-10.41,1.17-12.27-3.13-1.87-4.35,1.47-8.6,5.75-11.14-.49-.79-1.42-1.26-5-.56l-.36-4.59q-4.17.48-5.28.67l-.9-5.09s4.81-.54,5.31-.72l-.7-3.95,5.26-.79s-.1,4.07.03,4.5c0,0,5.9-.82,6.85-1l.41,4.62s-6.44.72-7.71.85c-.04,0-.02,1.69-.01,2.17,2.14-.31,3.92.55,4.58,1.85,0,0,2.67-1.41,4.25-2.46l2.07,4.41Z"/>
        </g>
        <g>
          <path class="cls-11" d="M137.41,249.33l-4.17-1.01s2.25-6.15,2.65-8.44l5.43,1.2s-3.05,6.92-3.92,8.25ZM146.3,249.72s-2.21-13.4-1.92-16.69l4.67-.73s1,10.67.83,12.54c0,0,5.42-.05,9.02-.3l1.54-4.87s1.89,3.42,2.68,7.88c0,0-9.26,3.35-16.82,2.17ZM151.41,231.77l-.43-4.5,3.62.02.15,3.72s-1.17.73-3.34.75ZM158.72,231.29s-.33-3.87-.5-4.73l3.63.1.08,4.21-3.21.42Z"/>
          <path class="cls-11" d="M182.66,234l-.46-3.61s-3.52.57-6.8,1.12l-.85-5.06s4.87-.35,7.09-.62l-1.12-4.55,5.29-.56.28,4.59,5.63-1.12.47,5.58s-3.15.25-6.2.73c0,0-.06,1.78.06,2.89,6.38-.87,9.96,2.53,10.78,6.15.65,2.71-.39,5.87-2.71,7.85.46-4.43-.57-6.58-2.33-8-1.17-.84-3.03-1.65-5.23-1.22.47,4.09-.1,8.58-4.14,9.2-3.4.52-6.1-1.45-6.71-4.96-.59-3.36,1.31-7.42,6.96-8.41ZM181.08,243.45c1.03-.19,1.43-2.8,1.24-4.67-1.4.07-3.2.94-3.13,2.78-.01,1.05.79,2.13,1.89,1.89ZM197.44,229.23s-1.57-3.49-1.91-3.98l3.77-1.64s1.17,2.33,1.8,4.07l-3.66,1.55Z"/>
          <path class="cls-11" d="M217.09,228.33s-3.06-5.75-3.66-8.38l5.47-1.5c.67,2.91,1.03,4.44,1.97,6.47l4.95-4.18,4.04,4.4c-5.14,1.22-10.02,4.51-8.62,9.39.96,3.36,6.8,3.07,9.7,1.19l-.14,6.37c-7.89,2.24-14.2,1.13-16.02-5.47-1.09-3.87.43-6.64,2.31-8.29ZM232.85,218.27l.31,2.94s-1,.39-1.64.82l-1.09-3.06,2.42-.7ZM234.83,221.11l-.85-3.09,2.46-.7.03,2.97s-1,.39-1.64.82Z"/>
          <path class="cls-11" d="M270.53,230.07c.69,6.6-5.22,9.64-10.77,8.89-3.22-.42-4.41-3.32-4.07-5.08.25-1.47,1.5-2.97,4.02-3.12,1.16-.04,3.27.54,4.22,3.05.82-.21,1.8-1.64,1.65-3.07-.45-4.26-5.61-4.76-9.29-4.21l4.37-7.38s-5.38.81-7.17,1l-.62-5.08s10.38-1.13,14.41-1.39c-1.67,4.36-2.75,6.32-5.01,10.1,1.73.06,7.66.52,8.26,6.29ZM261.03,234.65c-.16-.38-.57-.83-1.02-.94-.7-.13-1.37.35-1.18.97.19.62.72.73,1.01.78.88-.01,1.26-.62,1.2-.81Z"/>
          <path class="cls-11" d="M287.9,225.47l-.67-5.24c7.83-.86,23.25-2.6,24.97-2.74l.44,5.38s-4.59.36-8.39.56c.86,5.14-1.27,12.04-10.72,12.79,5.46-4.68,6.29-9.39,5.35-12.59,0,0-6.58,1.25-10.99,1.84ZM291.64,210.12s11.54-1.17,15.06-1.3l.3,4.35s-10.52,2.03-14.75,2.32l-.6-5.37ZM309.96,213.06l-1.09-3.06,2.46-.7.31,2.94s-1,.39-1.68.82ZM313.32,212.14l-.85-3.09,2.42-.7.07,2.97s-1.01.39-1.64.82Z"/>
          <path class="cls-11" d="M330.03,217.98s-4.88.59-5.99.79l-.74-5.15s3.91-.29,6.42-.55l-.9-5.49,5.14-.46.38,5.55s1.85-.03,6.17-.57l-1.5-6.6,6-.67s.59,5.97.67,6.73l5.26-.87.33,5.07s-2.35.21-5.18.46c1.29,8.11-1.93,13.39-9.93,16.08,4.6-5.55,5.61-9.8,4.65-15.45,0,0-4.42.42-6.48.72l1.03,5.56-4.65.53-.68-5.68ZM347.47,204.49l2.46-.7.31,2.94s-1,.39-1.68.82l-1.09-3.06ZM351.07,203.55l2.42-.7.07,2.97s-1,.39-1.64.82l-.85-3.09Z"/>
          <path class="cls-11" d="M362.55,214.69c6.88-4.5,13.76-10.25,15.87-15.06l6.4,4.31s-2.39,4.39-6.19,7.65l2.38,14.99-5.45.57-1.1-13.96c-3.72,1.32-7.46,2.07-11.91,1.49Z"/>
          <path class="cls-11" d="M410.7,206.77s-5.36-2.37-6.34-2.91l2.33-4.63s3.4.97,6.09,2.09l-2.08,5.45ZM406.36,216.72c10.02-1.86,15.09-6.37,20.14-12.29-.44,8.77-6.2,15.65-16.84,18.46l-3.3-6.17Z"/>
          <path class="cls-11" d="M462.32,205.41s-3.38,1.16-4.32,1.74c0,0,1.04,2.59,1.04,3.35l-3.35,1.4s-.34-2.82-.68-2.66c-2.63,1.32-3.86,2.7-3.39,4.82.65,2.71,4.51,1.58,7.66.6l.78,5.11c-3.78,1.52-10.41,1.17-12.27-3.13-1.87-4.35,1.47-8.6,5.75-11.14-.49-.79-1.42-1.26-5-.56l-.36-4.59q-4.17.48-5.28.67l-.9-5.09s4.81-.54,5.31-.72l-.7-3.95,5.26-.79s-.1,4.07.03,4.5c0,0,5.9-.82,6.85-1l.41,4.62s-6.44.72-7.71.85c-.04,0-.02,1.69-.01,2.17,2.14-.31,3.92.55,4.58,1.85,0,0,2.67-1.41,4.25-2.46l2.07,4.41Z"/>
        </g>
      </g>
      <g>
        <g>
          <path class="cls-3" d="M121.76,194.16c1.41-9.5,2.52-19.07,3.26-28.3l-22.98,2.41c-1.92,10.46-4.16,20.65-6.54,28.64l-14.92,1.57c5.88-38.73,5.65-80.23,5.65-80.23l23.47-2.47s-2.02,18.11-5.28,38.77l21.84-5.51c1.19-20.24,1.14-35.11,1.14-35.11l23.47-2.47s-5.86,53.31-14.2,81.13l-14.92,1.57Z"/>
          <path class="cls-3" d="M212.59,162.89c-2.45,6.39-8.49,24.42-19.93,25.62-5.77.61-9.75-2.8-11.59-7.93-3.34,6.48-8.4,10.03-14.36,10.66-7.66.81-15.47-3.7-16.74-15.74-1.43-13.63,6.57-29.35,20-30.76,6.56-.69,10.46,1.92,12.33,5.34.69-2.99,1.29-4.96,1.29-4.96l13.43-1.41s-3.87,14.89-2.74,25.63c.28,2.69,1.46,5.28,3.65,5.05,3.58-.38,6.91-7.97,9.03-13.62l5.65,2.12ZM179.69,163.63l-5.98-.48c.51-1.86.9-3.92.72-5.61-.2-1.89-1.11-2.9-2.6-2.74-3.48.37-6.32,7.8-5.51,15.46.47,4.48,2.56,7.17,5.45,6.87,4.08-.43,6.76-5.54,7.93-13.5Z"/>
          <path class="cls-3" d="M249.52,134.47c-2.82,21.01-15.29,42.03-24.53,48.83l-12.93,1.36c-3.44-9.79-5.39-21.66-7.5-41.75l18.2-1.91c-.3,7.67-.26,16.62.53,24.18.37,3.48.69,6.56,1.05,9.04l.4-.04c8.55-8.54,9.7-27.27,9.22-35.66l15.56-4.05Z"/>
          <path class="cls-3" d="M267.03,163.3c1.37,3.48,4.18,5.29,8.15,4.88,8.06-.85,13.37-10.56,15.49-16.21l5.65,2.12c-2.45,6.39-9.79,24.56-26.2,26.28-10.05,1.06-19.18-4.52-20.5-17.05-1.14-10.84,4.66-27.44,21.67-29.23,6.66-.7,12.96,1.76,13.7,8.82.96,9.15-7.07,16.93-17.97,20.39ZM265.85,156.89c4.34-1.76,9.37-5.61,8.82-10.78-.16-1.49-1.08-2.6-2.57-2.44-2.59.27-6.65,4.62-6.25,13.23Z"/>
          <path class="cls-3" d="M367.66,107.57l-26.46,2.78c-.73,5.51-1.67,11.84-2.68,18.48l27.31-6.09-1.57,16.66-28.24,3.97c-2.01,10.57-4.24,20.86-6.61,28.95l-14.92,1.57c4.28-28.2,5.22-63.2,5.46-77.2l51.82-9.27-4.12,20.14Z"/>
          <path class="cls-3" d="M432.58,139.77c-2.45,6.39-8.49,24.42-19.93,25.63-7.66.8-11.74-3.59-13.55-9.34-3.56,7.31-8.63,11.67-14.99,12.34-10.24,1.08-14.68-4.79-15.65-14.04-1.41-13.43,2.59-28.93,2.59-28.93l17.01-1.79s-4.66,14.06-3.53,24.81c.4,3.78,2.39,5.48,4.57,5.25,8.06-.85,7.99-17.73,10.19-31.24l17.7-1.86s-3.87,14.89-2.74,25.63c.28,2.69,1.46,5.28,3.65,5.05,3.58-.38,6.91-7.97,9.03-13.62l5.65,2.12Z"/>
          <path class="cls-3" d="M444.13,117.74s-.6,1.97-1.67,11.84l.4-.04c3.78-8.04,9.34-14.46,17.2-15.28,5.77-.61,10.77,1.99,11.52,9.15.83,7.86-4.09,15.61-3.65,19.79.21,1.99,1.59,2.65,2.88,2.51,3.78-.4,7.3-8.01,9.42-13.66l5.65,2.12c-7.07,19.75-13.67,24.97-20.73,25.71-6.66.7-11.86-2.78-12.58-9.64-.73-6.96,2.47-13.83,2-18.31-.21-1.99-1.19-2.69-2.38-2.57-4.97.52-10.51,13.88-10.4,31.16l-15.42,1.62c-.68-24.67,2.24-42.77,2.24-42.77l15.52-1.63Z"/>
          <path class="cls-3" d="M505.94,145.23c.48,4.58-2.5,10.62-8.97,11.3-5.47.58-9.63-3.61-10.14-8.49-.59-5.57,3.29-10.8,8.96-11.4,5.07-.53,9.54,2.72,10.15,8.59ZM490.5,133.18c-.43-7.9,3.03-43.86,5.28-55.96l20.59-2.16c-2.38,6.08-10.22,38.58-12.64,56.74l-13.23,1.39Z"/>
        </g>
        <g>
          <path class="cls-4" d="M121.76,194.16c1.41-9.5,2.52-19.07,3.26-28.3l-22.98,2.41c-1.92,10.46-4.16,20.65-6.54,28.64l-14.92,1.57c5.88-38.73,5.65-80.23,5.65-80.23l23.47-2.47s-2.02,18.11-5.28,38.77l21.84-5.51c1.19-20.24,1.14-35.11,1.14-35.11l23.47-2.47s-5.86,53.31-14.2,81.13l-14.92,1.57Z"/>
          <path class="cls-4" d="M212.59,162.89c-2.45,6.39-8.49,24.42-19.93,25.62-5.77.61-9.75-2.8-11.59-7.93-3.34,6.48-8.4,10.03-14.36,10.66-7.66.81-15.47-3.7-16.74-15.74-1.43-13.63,6.57-29.35,20-30.76,6.56-.69,10.46,1.92,12.33,5.34.69-2.99,1.29-4.96,1.29-4.96l13.43-1.41s-3.87,14.89-2.74,25.63c.28,2.69,1.46,5.28,3.65,5.05,3.58-.38,6.91-7.97,9.03-13.62l5.65,2.12ZM179.69,163.63l-5.98-.48c.51-1.86.9-3.92.72-5.61-.2-1.89-1.11-2.9-2.6-2.74-3.48.37-6.32,7.8-5.51,15.46.47,4.48,2.56,7.17,5.45,6.87,4.08-.43,6.76-5.54,7.93-13.5Z"/>
          <path class="cls-4" d="M249.52,134.47c-2.82,21.01-15.29,42.03-24.53,48.83l-12.93,1.36c-3.44-9.79-5.39-21.66-7.5-41.75l18.2-1.91c-.3,7.67-.26,16.62.53,24.18.37,3.48.69,6.56,1.05,9.04l.4-.04c8.55-8.54,9.7-27.27,9.22-35.66l15.56-4.05Z"/>
          <path class="cls-4" d="M267.03,163.3c1.37,3.48,4.18,5.29,8.15,4.88,8.06-.85,13.37-10.56,15.49-16.21l5.65,2.12c-2.45,6.39-9.79,24.56-26.2,26.28-10.05,1.06-19.18-4.52-20.5-17.05-1.14-10.84,4.66-27.44,21.67-29.23,6.66-.7,12.96,1.76,13.7,8.82.96,9.15-7.07,16.93-17.97,20.39ZM265.85,156.89c4.34-1.76,9.37-5.61,8.82-10.78-.16-1.49-1.08-2.6-2.57-2.44-2.59.27-6.65,4.62-6.25,13.23Z"/>
          <path class="cls-4" d="M367.66,107.57l-26.46,2.78c-.73,5.51-1.67,11.84-2.68,18.48l27.31-6.09-1.57,16.66-28.24,3.97c-2.01,10.57-4.24,20.86-6.61,28.95l-14.92,1.57c4.28-28.2,5.22-63.2,5.46-77.2l51.82-9.27-4.12,20.14Z"/>
          <path class="cls-4" d="M432.58,139.77c-2.45,6.39-8.49,24.42-19.93,25.63-7.66.8-11.74-3.59-13.55-9.34-3.56,7.31-8.63,11.67-14.99,12.34-10.24,1.08-14.68-4.79-15.65-14.04-1.41-13.43,2.59-28.93,2.59-28.93l17.01-1.79s-4.66,14.06-3.53,24.81c.4,3.78,2.39,5.48,4.57,5.25,8.06-.85,7.99-17.73,10.19-31.24l17.7-1.86s-3.87,14.89-2.74,25.63c.28,2.69,1.46,5.28,3.65,5.05,3.58-.38,6.91-7.97,9.03-13.62l5.65,2.12Z"/>
          <path class="cls-4" d="M444.13,117.74s-.6,1.97-1.67,11.84l.4-.04c3.78-8.04,9.34-14.46,17.2-15.28,5.77-.61,10.77,1.99,11.52,9.15.83,7.86-4.09,15.61-3.65,19.79.21,1.99,1.59,2.65,2.88,2.51,3.78-.4,7.3-8.01,9.42-13.66l5.65,2.12c-7.07,19.75-13.67,24.97-20.73,25.71-6.66.7-11.86-2.78-12.58-9.64-.73-6.96,2.47-13.83,2-18.31-.21-1.99-1.19-2.69-2.38-2.57-4.97.52-10.51,13.88-10.4,31.16l-15.42,1.62c-.68-24.67,2.24-42.77,2.24-42.77l15.52-1.63Z"/>
          <path class="cls-4" d="M505.94,145.23c.48,4.58-2.5,10.62-8.97,11.3-5.47.58-9.63-3.61-10.14-8.49-.59-5.57,3.29-10.8,8.96-11.4,5.07-.53,9.54,2.72,10.15,8.59ZM490.5,133.18c-.43-7.9,3.03-43.86,5.28-55.96l20.59-2.16c-2.38,6.08-10.22,38.58-12.64,56.74l-13.23,1.39Z"/>
        </g>
        <g>
          <path class="cls-6" d="M121.76,194.16c1.41-9.5,2.52-19.07,3.26-28.3l-22.98,2.41c-1.92,10.46-4.16,20.65-6.54,28.64l-14.92,1.57c5.88-38.73,5.65-80.23,5.65-80.23l23.47-2.47s-2.02,18.11-5.28,38.77l21.84-5.51c1.19-20.24,1.14-35.11,1.14-35.11l23.47-2.47s-5.86,53.31-14.2,81.13l-14.92,1.57Z"/>
          <path class="cls-6" d="M212.59,162.89c-2.45,6.39-8.49,24.42-19.93,25.62-5.77.61-9.75-2.8-11.59-7.93-3.34,6.48-8.4,10.03-14.36,10.66-7.66.81-15.47-3.7-16.74-15.74-1.43-13.63,6.57-29.35,20-30.76,6.56-.69,10.46,1.92,12.33,5.34.69-2.99,1.29-4.96,1.29-4.96l13.43-1.41s-3.87,14.89-2.74,25.63c.28,2.69,1.46,5.28,3.65,5.05,3.58-.38,6.91-7.97,9.03-13.62l5.65,2.12ZM179.69,163.63l-5.98-.48c.51-1.86.9-3.92.72-5.61-.2-1.89-1.11-2.9-2.6-2.74-3.48.37-6.32,7.8-5.51,15.46.47,4.48,2.56,7.17,5.45,6.87,4.08-.43,6.76-5.54,7.93-13.5Z"/>
          <path class="cls-6" d="M249.52,134.47c-2.82,21.01-15.29,42.03-24.53,48.83l-12.93,1.36c-3.44-9.79-5.39-21.66-7.5-41.75l18.2-1.91c-.3,7.67-.26,16.62.53,24.18.37,3.48.69,6.56,1.05,9.04l.4-.04c8.55-8.54,9.7-27.27,9.22-35.66l15.56-4.05Z"/>
          <path class="cls-6" d="M267.03,163.3c1.37,3.48,4.18,5.29,8.15,4.88,8.06-.85,13.37-10.56,15.49-16.21l5.65,2.12c-2.45,6.39-9.79,24.56-26.2,26.28-10.05,1.06-19.18-4.52-20.5-17.05-1.14-10.84,4.66-27.44,21.67-29.23,6.66-.7,12.96,1.76,13.7,8.82.96,9.15-7.07,16.93-17.97,20.39ZM265.85,156.89c4.34-1.76,9.37-5.61,8.82-10.78-.16-1.49-1.08-2.6-2.57-2.44-2.59.27-6.65,4.62-6.25,13.23Z"/>
          <path class="cls-6" d="M367.66,107.57l-26.46,2.78c-.73,5.51-1.67,11.84-2.68,18.48l27.31-6.09-1.57,16.66-28.24,3.97c-2.01,10.57-4.24,20.86-6.61,28.95l-14.92,1.57c4.28-28.2,5.22-63.2,5.46-77.2l51.82-9.27-4.12,20.14Z"/>
          <path class="cls-6" d="M432.58,139.77c-2.45,6.39-8.49,24.42-19.93,25.63-7.66.8-11.74-3.59-13.55-9.34-3.56,7.31-8.63,11.67-14.99,12.34-10.24,1.08-14.68-4.79-15.65-14.04-1.41-13.43,2.59-28.93,2.59-28.93l17.01-1.79s-4.66,14.06-3.53,24.81c.4,3.78,2.39,5.48,4.57,5.25,8.06-.85,7.99-17.73,10.19-31.24l17.7-1.86s-3.87,14.89-2.74,25.63c.28,2.69,1.46,5.28,3.65,5.05,3.58-.38,6.91-7.97,9.03-13.62l5.65,2.12Z"/>
          <path class="cls-6" d="M444.13,117.74s-.6,1.97-1.67,11.84l.4-.04c3.78-8.04,9.34-14.46,17.2-15.28,5.77-.61,10.77,1.99,11.52,9.15.83,7.86-4.09,15.61-3.65,19.79.21,1.99,1.59,2.65,2.88,2.51,3.78-.4,7.3-8.01,9.42-13.66l5.65,2.12c-7.07,19.75-13.67,24.97-20.73,25.71-6.66.7-11.86-2.78-12.58-9.64-.73-6.96,2.47-13.83,2-18.31-.21-1.99-1.19-2.69-2.38-2.57-4.97.52-10.51,13.88-10.4,31.16l-15.42,1.62c-.68-24.67,2.24-42.77,2.24-42.77l15.52-1.63Z"/>
          <path class="cls-6" d="M505.94,145.23c.48,4.58-2.5,10.62-8.97,11.3-5.47.58-9.63-3.61-10.14-8.49-.59-5.57,3.29-10.8,8.96-11.4,5.07-.53,9.54,2.72,10.15,8.59ZM490.5,133.18c-.43-7.9,3.03-43.86,5.28-55.96l20.59-2.16c-2.38,6.08-10.22,38.58-12.64,56.74l-13.23,1.39Z"/>
        </g>
        <g>
          <path class="cls-11" d="M121.76,194.16c1.41-9.5,2.52-19.07,3.26-28.3l-22.98,2.41c-1.92,10.46-4.16,20.65-6.54,28.64l-14.92,1.57c5.88-38.73,5.65-80.23,5.65-80.23l23.47-2.47s-2.02,18.11-5.28,38.77l21.84-5.51c1.19-20.24,1.14-35.11,1.14-35.11l23.47-2.47s-5.86,53.31-14.2,81.13l-14.92,1.57Z"/>
          <path class="cls-11" d="M212.59,162.89c-2.45,6.39-8.49,24.42-19.93,25.62-5.77.61-9.75-2.8-11.59-7.93-3.34,6.48-8.4,10.03-14.36,10.66-7.66.81-15.47-3.7-16.74-15.74-1.43-13.63,6.57-29.35,20-30.76,6.56-.69,10.46,1.92,12.33,5.34.69-2.99,1.29-4.96,1.29-4.96l13.43-1.41s-3.87,14.89-2.74,25.63c.28,2.69,1.46,5.28,3.65,5.05,3.58-.38,6.91-7.97,9.03-13.62l5.65,2.12ZM179.69,163.63l-5.98-.48c.51-1.86.9-3.92.72-5.61-.2-1.89-1.11-2.9-2.6-2.74-3.48.37-6.32,7.8-5.51,15.46.47,4.48,2.56,7.17,5.45,6.87,4.08-.43,6.76-5.54,7.93-13.5Z"/>
          <path class="cls-11" d="M249.52,134.47c-2.82,21.01-15.29,42.03-24.53,48.83l-12.93,1.36c-3.44-9.79-5.39-21.66-7.5-41.75l18.2-1.91c-.3,7.67-.26,16.62.53,24.18.37,3.48.69,6.56,1.05,9.04l.4-.04c8.55-8.54,9.7-27.27,9.22-35.66l15.56-4.05Z"/>
          <path class="cls-11" d="M267.03,163.3c1.37,3.48,4.18,5.29,8.15,4.88,8.06-.85,13.37-10.56,15.49-16.21l5.65,2.12c-2.45,6.39-9.79,24.56-26.2,26.28-10.05,1.06-19.18-4.52-20.5-17.05-1.14-10.84,4.66-27.44,21.67-29.23,6.66-.7,12.96,1.76,13.7,8.82.96,9.15-7.07,16.93-17.97,20.39ZM265.85,156.89c4.34-1.76,9.37-5.61,8.82-10.78-.16-1.49-1.08-2.6-2.57-2.44-2.59.27-6.65,4.62-6.25,13.23Z"/>
          <path class="cls-11" d="M367.66,107.57l-26.46,2.78c-.73,5.51-1.67,11.84-2.68,18.48l27.31-6.09-1.57,16.66-28.24,3.97c-2.01,10.57-4.24,20.86-6.61,28.95l-14.92,1.57c4.28-28.2,5.22-63.2,5.46-77.2l51.82-9.27-4.12,20.14Z"/>
          <path class="cls-11" d="M432.58,139.77c-2.45,6.39-8.49,24.42-19.93,25.63-7.66.8-11.74-3.59-13.55-9.34-3.56,7.31-8.63,11.67-14.99,12.34-10.24,1.08-14.68-4.79-15.65-14.04-1.41-13.43,2.59-28.93,2.59-28.93l17.01-1.79s-4.66,14.06-3.53,24.81c.4,3.78,2.39,5.48,4.57,5.25,8.06-.85,7.99-17.73,10.19-31.24l17.7-1.86s-3.87,14.89-2.74,25.63c.28,2.69,1.46,5.28,3.65,5.05,3.58-.38,6.91-7.97,9.03-13.62l5.65,2.12Z"/>
          <path class="cls-11" d="M444.13,117.74s-.6,1.97-1.67,11.84l.4-.04c3.78-8.04,9.34-14.46,17.2-15.28,5.77-.61,10.77,1.99,11.52,9.15.83,7.86-4.09,15.61-3.65,19.79.21,1.99,1.59,2.65,2.88,2.51,3.78-.4,7.3-8.01,9.42-13.66l5.65,2.12c-7.07,19.75-13.67,24.97-20.73,25.71-6.66.7-11.86-2.78-12.58-9.64-.73-6.96,2.47-13.83,2-18.31-.21-1.99-1.19-2.69-2.38-2.57-4.97.52-10.51,13.88-10.4,31.16l-15.42,1.62c-.68-24.67,2.24-42.77,2.24-42.77l15.52-1.63Z"/>
          <path class="cls-11" d="M505.94,145.23c.48,4.58-2.5,10.62-8.97,11.3-5.47.58-9.63-3.61-10.14-8.49-.59-5.57,3.29-10.8,8.96-11.4,5.07-.53,9.54,2.72,10.15,8.59ZM490.5,133.18c-.43-7.9,3.03-43.86,5.28-55.96l20.59-2.16c-2.38,6.08-10.22,38.58-12.64,56.74l-13.23,1.39Z"/>
        </g>
      </g>
      <polygon class="cls-8" points="44.01 232.59 28.17 230.03 20.83 244.3 18.38 228.45 2.53 225.88 16.86 218.65 14.4 202.79 25.71 214.17 40.03 206.93 32.7 221.21 44.01 232.59"/>
      <polygon class="cls-9" points="25.55 195.39 22.5 186 12.63 186 20.61 180.2 17.56 170.81 25.55 176.61 33.53 170.81 30.48 180.2 38.47 186 28.6 186 25.55 195.39"/>
      <polygon class="cls-9" points="571.55 58.39 568.5 49 558.63 49 566.61 43.2 563.56 33.81 571.55 39.61 579.53 33.81 576.48 43.2 584.47 49 574.6 49 571.55 58.39"/>
      <polygon class="cls-10" points="53.61 255.15 56.49 249.48 52 244.98 58.28 245.98 61.17 240.31 62.16 246.59 68.45 247.59 62.78 250.48 63.77 256.76 59.27 252.26 53.61 255.15"/>
      <polygon class="cls-8" points="562.19 32.17 542.45 34.09 538.17 53.46 530.25 35.27 510.5 37.18 525.35 24.03 517.43 5.84 534.53 15.9 549.38 2.74 545.1 22.12 562.19 32.17"/>
      <rect class="cls-1" width="584" height="264"/>
    </g>
  </g>
</svg>