<?xml version="1.0" encoding="UTF-8"?>
<svg id="_レイヤー_2" data-name="レイヤー 2" xmlns="http://www.w3.org/2000/svg" viewBox="0 0 96.06 96.09">
  <defs>
    <style>
      .cls-1 {
        fill: #749ae3;
        font-family: ZenMaruGothic-Regular, 'Zen Maru Gothic';
        font-size: 12px;
      }
    </style>
  </defs>
  <g id="layout">
    <text class="cls-1" transform="translate(76.11 23.05) rotate(52.48)"><tspan x="0" y="0">s</tspan></text>
    <text class="cls-1" transform="translate(79.3 27.14) rotate(60.62)"><tspan x="0" y="0">c</tspan></text>
    <text class="cls-1" transform="translate(82 31.99) rotate(68.13)"><tspan x="0" y="0">r</tspan></text>
    <text class="cls-1" transform="translate(83.65 35.88) rotate(76.11)"><tspan x="0" y="0">o</tspan></text>
    <text class="cls-1" transform="translate(85.05 41.94) rotate(82.62)"><tspan x="0" y="0">l</tspan></text>
    <text class="cls-1" transform="translate(85.36 44.29) rotate(86.24)"><tspan x="0" y="0">l</tspan></text>
    <text class="cls-1" transform="translate(85.55 46.61) rotate(90.93)"><tspan x="0" y="0"> </tspan></text>
    <text class="cls-1" transform="translate(85.64 49.74) rotate(97.7)"><tspan x="0" y="0">d</tspan></text>
    <text class="cls-1" transform="translate(84.79 56.14) rotate(107.32)"><tspan x="0" y="0">o</tspan></text>
    <text class="cls-1" transform="translate(83.08 62.01) rotate(117.99)"><tspan x="0" y="0">w</tspan></text>
    <text class="cls-1" transform="translate(79.37 68.88) rotate(128.46)"><tspan x="0" y="0">n</tspan></text>
    <text class="cls-1" transform="translate(75.54 73.59) rotate(135.43)"><tspan x="0" y="0"> </tspan></text>
    <text class="cls-1" transform="translate(73.38 75.81) rotate(141.75)"><tspan x="0" y="0">s</tspan></text>
    <text class="cls-1" transform="translate(69.31 79.07) rotate(149.93)"><tspan x="0" y="0">c</tspan></text>
    <text class="cls-1" transform="translate(64.49 81.82) rotate(157.42)"><tspan x="0" y="0">r</tspan></text>
    <text class="cls-1" transform="translate(60.64 83.52) rotate(165.39)"><tspan x="0" y="0">o</tspan></text>
    <text class="cls-1" transform="translate(54.6 85) rotate(171.9)"><tspan x="0" y="0">l</tspan></text>
    <text class="cls-1" transform="translate(52.26 85.33) rotate(175.51)"><tspan x="0" y="0">l</tspan></text>
    <text class="cls-1" transform="translate(49.89 85.52) rotate(179.07)"><tspan x="0" y="0"> </tspan></text>
    <text class="cls-1" transform="translate(46.81 85.68) rotate(-173.03)"><tspan x="0" y="0">d</tspan></text>
    <text class="cls-1" transform="translate(40.39 84.91) rotate(-163.39)"><tspan x="0" y="0">o</tspan></text>
    <text class="cls-1" transform="translate(34.52 83.28) rotate(-152.75)"><tspan x="0" y="0">w</tspan></text>
    <text class="cls-1" transform="translate(27.6 79.66) rotate(-142.27)"><tspan x="0" y="0">n</tspan></text>
    <text class="cls-1" transform="translate(22.84 75.89) rotate(-135.3)"><tspan x="0" y="0"> </tspan></text>
    <text class="cls-1" transform="translate(20.57 73.74) rotate(-128.93)"><tspan x="0" y="0">s</tspan></text>
    <text class="cls-1" transform="translate(17.28 69.73) rotate(-120.81)"><tspan x="0" y="0">c</tspan></text>
    <text class="cls-1" transform="translate(14.47 64.95) rotate(-113.32)"><tspan x="0" y="0">r</tspan></text>
    <text class="cls-1" transform="translate(12.71 61.1) rotate(-105.32)"><tspan x="0" y="0">o</tspan></text>
    <text class="cls-1" transform="translate(11.16 55.09) rotate(-98.82)"><tspan x="0" y="0">l</tspan></text>
    <text class="cls-1" transform="translate(10.8 52.75) rotate(-95.21)"><tspan x="0" y="0">l</tspan></text>
    <text class="cls-1" transform="translate(10.56 50.4) rotate(-91)"><tspan x="0" y="0"> </tspan></text>
    <text class="cls-1" transform="translate(10.38 47.31) rotate(-83.75)"><tspan x="0" y="0">d</tspan></text>
    <text class="cls-1" transform="translate(11.07 40.87) rotate(-74.1)"><tspan x="0" y="0">o</tspan></text>
    <text class="cls-1" transform="translate(12.63 34.97) rotate(-63.44)"><tspan x="0" y="0">w</tspan></text>
    <text class="cls-1" transform="translate(16.15 28.03) rotate(-53)"><tspan x="0" y="0">n</tspan></text>
    <text class="cls-1" transform="translate(19.87 23.22) rotate(-46.02)"><tspan x="0" y="0"> </tspan></text>
    <text class="cls-1" transform="translate(21.99 20.92) rotate(-39.66)"><tspan x="0" y="0">s</tspan></text>
    <text class="cls-1" transform="translate(25.96 17.59) rotate(-31.54)"><tspan x="0" y="0">c</tspan></text>
    <text class="cls-1" transform="translate(30.69 14.71) rotate(-24.07)"><tspan x="0" y="0">r</tspan></text>
    <text class="cls-1" transform="translate(34.51 12.91) rotate(-16.08)"><tspan x="0" y="0">o</tspan></text>
    <text class="cls-1" transform="translate(40.52 11.28) rotate(-9.54)"><tspan x="0" y="0">l</tspan></text>
    <text class="cls-1" transform="translate(42.88 10.88) rotate(-5.89)"><tspan x="0" y="0">l</tspan></text>
    <text class="cls-1" transform="translate(45.23 10.61) rotate(-1.68)"><tspan x="0" y="0"> </tspan></text>
    <text class="cls-1" transform="translate(48.29 10.4) rotate(5.53)"><tspan x="0" y="0">d</tspan></text>
    <text class="cls-1" transform="translate(54.72 11) rotate(15.14)"><tspan x="0" y="0">o</tspan></text>
    <text class="cls-1" transform="translate(60.64 12.49) rotate(25.81)"><tspan x="0" y="0">w</tspan></text>
    <text class="cls-1" transform="translate(67.66 15.94) rotate(36.32)"><tspan x="0" y="0">n</tspan></text>
  </g>
</svg>