<?xml version="1.0" encoding="UTF-8"?>
<svg id="_レイヤー_2" data-name="レイヤー 2" xmlns="http://www.w3.org/2000/svg" viewBox="0 0 1440 900">
  <defs>
    <style>
      .cls-1 {
        fill: #ff6d99;
      }
    </style>
  </defs>
  <g id="_レイヤー_1-2" data-name="レイヤー 1">
    <path class="cls-1" d="M0,0v900h1440V0H0ZM820.23,530.02c-23.51,20.72-46.23,36.57-48.75,38.31l-51.48,35.62-51.48-35.62c-2.51-1.74-25.24-17.59-48.75-38.31-34.69-30.57-74.52-73.25-74.52-132.47,0-56.06,42.46-101.5,94.83-101.5,33.57,0,63.07,29.68,79.92,57.85,16.85-28.17,46.35-57.85,79.92-57.85,52.37,0,94.83,45.44,94.83,101.5,0,59.22-39.82,101.9-74.52,132.47Z"/>
  </g>
</svg>