<?xml version="1.0" encoding="UTF-8"?>
<svg id="_レイヤー_2" data-name="レイヤー 2" xmlns="http://www.w3.org/2000/svg" viewBox="0 0 200 84">
  <defs>
    <style>
      .cls-1 {
        fill: none;
      }

      .cls-2 {
        fill: #ff90ad;
      }

      .cls-3 {
        fill: #ff6d99;
      }
    </style>
  </defs>
  <g id="layout">
    <g>
      <path class="cls-3" d="M30.89,11.26c-.04.24-.1.48-.18.72-.08.24-.16.48-.24.72-.04.16-.06.4-.06.72-.12.12-.23.25-.33.39-.1.14-.23.31-.39.51,0,.16-.04.4-.12.72-.16.12-.32.24-.48.36-.16.12-.34.24-.54.36-.04.16-.1.31-.18.45-.08.14-.16.31-.24.51-.44.4-.83.84-1.17,1.31-.34.48-.73.94-1.17,1.37-.24.08-.48,0-.72-.24s-.49-.47-.75-.69c-.26-.22-.55-.41-.87-.57-.12-.08-.2-.14-.24-.18-.04-.04-.1-.1-.18-.18-.16,0-.33-.04-.51-.12-.18-.08-.35-.14-.51-.18-.2-.04-.38-.12-.54-.24-.16-.12-.32-.24-.48-.36l-.66-.72c-.4.08-.77.04-1.11-.12-.34-.16-.71-.32-1.11-.48-.28.04-.56.06-.84.06s-.58.02-.9.06c-.28.16-.56.34-.84.54-.28.2-.56.4-.84.6-.36.28-.71.53-1.05.75-.34.22-.73.37-1.17.45-.04,0-.1.03-.18.09-.08.06-.16.11-.24.15-.16.16-.33.36-.51.6-.18.24-.35.46-.51.66-.2.6-.36,1.14-.48,1.61.04.16.07.3.09.42.02.12.05.24.09.36,0,.24-.12.46-.36.66-.12.16-.25.29-.39.39-.14.1-.25.27-.33.51l.42.66c.04.16-.01.32-.15.48-.14.16-.25.34-.33.54,0,.04-.02.06-.06.06s-.06.02-.06.06c.08.28.15.59.21.93.06.34.11.67.15.99.4.32.75.66,1.05,1.02.3.36.59.74.87,1.14.2.24.41.46.63.66.22.2.43.4.63.6.4.2.81.39,1.22.57s.83.31,1.23.39c.32.04.61.13.87.27.26.14.57.27.93.39.36,0,.76.01,1.2.03.44.02.88.03,1.31.03.28,0,.46-.02.54-.06.44-.12.86-.19,1.25-.21.4-.02.8-.09,1.2-.21.44-.08.87-.14,1.28-.18.42-.04.83-.08,1.22-.12.08,0,.19-.04.33-.12.14-.08.27-.08.39,0,.16.16.28.32.36.48.08.16.18.34.3.54-.04.12-.06.27-.06.45v.57c.88,1.47,1.53,3.17,1.97,5.08-.6.44-1.19.89-1.76,1.34-.58.46-1.19.95-1.82,1.46-.28.12-.59.19-.93.21-.34.02-.61.19-.81.51-.16-.08-.31-.14-.45-.18-.14-.04-.25-.08-.33-.12-.16.04-.26.12-.3.24-.04.12-.1.22-.18.3-.24-.12-.46-.24-.66-.36-.04.04-.13.08-.27.12-.14.04-.25.08-.33.12-.4.08-.78.17-1.14.27-.36.1-.74.15-1.14.15-.28,0-.6,0-.96.03-.36.02-.7.05-1.02.09-.08,0-.18-.01-.3-.03-.12-.02-.26-.05-.42-.09-.52-.16-.86-.28-1.02-.36-.16-.08-.5-.28-1.02-.6-.32-.04-.55.07-.69.33-.14.26-.31.39-.51.39h-.72c-.32-.12-.64-.24-.96-.36-.32-.12-.66-.2-1.02-.24-.28-.04-.53-.11-.75-.21-.22-.1-.47-.19-.75-.27-.28-.24-.57-.49-.87-.75-.3-.26-.61-.47-.93-.63-.28-.12-.55-.29-.81-.51-.26-.22-.49-.45-.69-.69-.16-.24-.34-.43-.54-.57-.2-.14-.38-.31-.54-.51-.28-.44-.62-.84-1.02-1.2-.2-.2-.37-.41-.51-.63-.14-.22-.31-.43-.51-.63-.12-.56-.23-1.11-.33-1.67-.1-.56-.19-1.14-.27-1.73-.08-.08-.17-.21-.27-.39-.1-.18-.23-.35-.39-.51-.04-.32-.1-.67-.18-1.05-.08-.38-.22-.73-.42-1.05.04-.16.1-.36.18-.6v-.3c-.32-.88-.42-1.71-.3-2.51.08-.56.15-1.14.21-1.76.06-.62.11-1.23.15-1.82.12-.08.23-.16.33-.24.1-.08.21-.16.33-.24-.48-.76-.48-1.59,0-2.51-.2-.4-.3-.84-.3-1.31.16-.16.3-.32.42-.48.12-.16.26-.32.42-.48.32-.28.6-.62.84-1.02.12-.2.23-.42.33-.66.1-.24.13-.46.09-.66.32-.2.65-.35.99-.45.34-.1.61-.27.81-.51.04-.04.08-.12.12-.24,0-.12-.01-.26-.03-.42-.02-.16-.03-.34-.03-.54.12-.16.22-.38.3-.66.28-.16.52-.28.72-.36.2-.08.4-.18.6-.3.08-.08.15-.16.21-.24.06-.08.11-.16.15-.24.4-.64.9-1.1,1.49-1.37.24-.08.48-.18.72-.3.24-.12.46-.22.66-.3.12-.08.23-.17.33-.27.1-.1.21-.19.33-.27.28-.08.58-.18.9-.3.28-.12.57-.24.87-.36.3-.12.61-.2.93-.24.28-.08.55-.18.81-.3.26-.12.51-.2.75-.24.2-.08.37-.07.51.03.14.1.29.19.45.27h1.26c.2-.08.34-.19.42-.33.08-.14.2-.23.36-.27.56-.12.98-.2,1.26-.24.28-.04.64-.05,1.08-.03.44.02,1.1.07,1.97.15.2.04.37.12.51.24.14.12.31.2.51.24.28,0,.55.03.81.09.26.06.53.13.81.21.36.28.74.53,1.14.75.4.22.86.35,1.37.39.24.4.55.72.93.96.38.24.77.46,1.17.66.36.2.7.44,1.02.72.32.28.62.58.9.9,0,.08,0,.17.03.27.02.1,0,.19-.03.27Z"/>
      <path class="cls-2" d="M60.77,31.63c-.16.52-.21,1.03-.15,1.52.06.5.05,1.01-.03,1.52-.04.28-.04.56,0,.84.04.28.02.58-.06.9-.04.24-.05.49-.03.75.02.26.03.51.03.75-.04.16-.06.36-.06.6-.08.28-.13.55-.15.81-.02.26-.07.55-.15.87,0,.04-.01.09-.03.15-.02.06-.03.13-.03.21,0,.28-.16.42-.48.42-.04-.04-.14-.06-.3-.06-.28-.12-.52-.14-.72-.06-.2.08-.4.16-.6.24-.12.12-.24.24-.36.36-.12.12-.24.26-.36.42-.44.24-.85.31-1.23.21-.38-.1-.77-.27-1.17-.51-.24,0-.42.02-.54.06h-.18s-.1-.06-.18-.06c-.16-.12-.31-.24-.45-.36-.14-.12-.29-.24-.45-.36-.32-.32-.44-.64-.36-.96.04-.16.09-.31.15-.45.06-.14.07-.29.03-.45-.04-.2-.09-.4-.15-.6-.06-.2-.09-.4-.09-.6s.03-.4.09-.6c.06-.2.11-.4.15-.6-.08-.32-.2-.64-.36-.96-.16-.32-.28-.66-.36-1.02-.04-.32-.09-.65-.15-.99-.06-.34-.09-.67-.09-.99-.04-.36-.07-.71-.09-1.05-.02-.34-.03-.71-.03-1.11-.08-.48-.28-.86-.6-1.14-.28-.32-.52-.62-.72-.9-.2-.28-.38-.6-.54-.96-.2-.16-.46-.3-.78-.42-.04-.08-.08-.16-.12-.24-.04-.08-.1-.14-.18-.18-.04-.04-.06-.09-.06-.15s-.02-.11-.06-.15l-.36-.36c-.16-.08-.32-.08-.48,0-.16.08-.3.12-.42.12-.16.04-.3.06-.42.06s-.28.02-.48.06c-.16.08-.29.17-.39.27s-.25.19-.45.27c-.12.12-.26.21-.42.27-.16.06-.32.13-.48.21-.16.36-.18.7-.06,1.02.08.4.13.82.15,1.25.02.44.07.88.15,1.31.04.4,0,.86-.12,1.37,0,.12-.02.25-.06.39-.04.14-.06.29-.06.45.04.64,0,1.27-.12,1.88-.12.62-.28,1.25-.48,1.88.04.4.08.79.12,1.17.04.38.08.77.12,1.17v1.26c0,.52-.28.82-.84.9h-1.25c-.4.04-.79.08-1.17.12-.38.04-.73.16-1.05.36-.16.04-.31.1-.45.18-.14.08-.31.16-.51.24l-.42.42c-.08,0-.17,0-.27.03-.1.02-.19,0-.27-.03-.4-.2-.78-.36-1.14-.48-.4-.52-.64-1.08-.72-1.67-.08-.6-.22-1.16-.42-1.67.04-.24.09-.47.15-.69.06-.22.05-.43-.03-.63-.04-.12-.06-.34-.06-.66,0-.12,0-.23.03-.33.02-.1,0-.19-.03-.27-.12-.76-.08-1.41.12-1.97.08-.36.06-.74-.06-1.14-.16-.72-.22-1.45-.18-2.21.12-.64.1-1.27-.06-1.91-.12-.12-.12-.28,0-.48,0-.2,0-.41.03-.63.02-.22.05-.41.09-.57.04-.16.12-.29.24-.39.12-.1.22-.19.3-.27l.18-1.08c.08-.12.02-.32-.18-.6-.04-.08-.1-.09-.18-.03-.08.06-.16.11-.24.15l-.06-.06c0-.44,0-.85.03-1.23.02-.38,0-.77-.03-1.17-.04-.16-.04-.3,0-.42.04-.12.06-.26.06-.42,0-.12-.02-.26-.06-.42-.04-.16-.06-.32-.06-.48v-.3c0-.12.02-.24.06-.36.04-.2.08-.4.12-.6.04-.2.1-.42.18-.66-.16-.32-.23-.66-.21-1.02.02-.36-.01-.74-.09-1.14-.04-.12-.03-.26.03-.42.06-.16.11-.34.15-.54-.16-.36-.22-.77-.18-1.23.04-.46.04-.91,0-1.34.08-.24.1-.47.06-.69-.04-.22-.06-.45-.06-.69.04-.4.04-.78,0-1.14-.04-.36-.02-.72.06-1.08.04-.12.05-.22.03-.3-.02-.08-.03-.16-.03-.24-.08-.76-.06-1.45.06-2.09.04-.12.06-.28.06-.48v-.54c-.04-.16-.07-.3-.09-.42-.02-.12-.01-.26.03-.42.12-.24.17-.49.15-.75-.02-.26.05-.51.21-.75.04-.08.06-.14.06-.18l.12-.06s.06-.06.18-.06c.2-.08.39-.15.57-.21s.37-.11.57-.15c.12.08.24.16.36.24.12.08.26.16.42.24h.96c.08-.08.16-.14.24-.18.08-.04.14-.08.18-.12l.6-.42c.16-.08.33-.13.51-.15.18-.02.33.03.45.15.36.24.71.44,1.05.6.34.16.69.26,1.05.3.2.32.35.62.45.9.1.28.21.58.33.9.12.4.3.86.54,1.37,0,.2-.07.36-.21.48-.14.12-.23.3-.27.54,0,.08,0,.2.03.36.02.16.05.34.09.54,0,.16-.02.32-.06.48-.04.16-.04.34,0,.54.08.64.1,1.28.06,1.91-.04.64-.1,1.26-.18,1.85v.84c0,.4.1.8.3,1.2.16.16.31.33.45.51.14.18.27.37.39.57.24.24.5.36.78.36.56,0,1.13.05,1.7.15.58.1,1.14.11,1.7.03.12-.04.22-.05.3-.03.08.02.18.03.3.03.12.08.27.14.45.18.18.04.35.08.51.12.44.08.62.34.54.78.08.04.14.08.18.12.08-.04.16-.06.24-.06s.14-.02.18-.06c.52-.2.98-.16,1.37.12.24.2.52.35.84.45.32.1.62.31.9.63.28.48.64.93,1.08,1.34.44.42.88.87,1.31,1.34.08.12.18.23.3.33.12.1.22.19.3.27.36.36.56.72.6,1.08.12.56.26,1,.42,1.31.12.44.3.94.54,1.49v.6c.04.16.08.33.12.51.04.18.06.37.06.57.04.48.08.96.12,1.43.04.48.08.96.12,1.43,0,.04,0,.09.03.15.02.06,0,.13-.03.21Z"/>
      <path class="cls-2" d="M75.83,23.27c-.08.24-.12.51-.12.81v.93c.04.28.04.57,0,.87-.04.3-.06.59-.06.87l-.42.6c.2.2.32.42.36.66.04.24.06.5.06.78v.87c0,.3-.02.61-.06.93-.04.28-.12.58-.24.9-.12.32-.22.66-.3,1.02,0,.4-.01.87-.03,1.4-.02.54-.01,1.07.03,1.58.04.76,0,1.52-.12,2.3-.12.78-.36,1.5-.72,2.18,0,.32.04.63.12.93.08.3.16.61.24.93,0,.04-.02.09-.06.15-.04.06-.06.13-.06.21-.2.28-.44.52-.72.72-.04,0-.08.02-.12.06h-.24c-.44,0-.89.03-1.34.09-.46.06-.97.03-1.52-.09-.16-.08-.33-.18-.51-.3-.18-.12-.37-.22-.57-.3-.16,0-.35-.01-.57-.03-.22-.02-.43-.05-.63-.09-.32-.36-.64-.74-.96-1.14-.12-.08-.26-.14-.42-.18-.16-.04-.32-.1-.48-.18-.28-.2-.38-.52-.3-.96.08-.44.18-.82.3-1.14.12-.52.1-1.02-.06-1.49l-.24-.84c0-.32-.02-.62-.06-.9-.04-.28-.04-.56,0-.84.04-.4.05-.78.03-1.14-.02-.36-.03-.74-.03-1.14.04-.56.06-1.11.06-1.64v-1.58c0-.2.02-.32.06-.36.2-.32.3-.63.3-.93v-.93c-.04-.32-.03-.65.03-.99.06-.34.05-.65-.03-.93v-1.05c0-.34.02-.69.06-1.05.04-.2.07-.41.09-.63.02-.22-.01-.47-.09-.75.36-.16.67-.28.93-.36.26-.08.51-.12.75-.12h.51c.18,0,.35-.02.51-.06.4-.08.74-.16,1.02-.24.2.04.37.11.51.21.14.1.29.19.45.27.28,0,.56-.06.84-.18.28-.04.53-.02.75.06.22.08.39.28.51.6.04.04.07.08.09.12.02.04.05.08.09.12l.42.24c.28.04.52,0,.72-.15.2-.14.4-.23.6-.27.24,0,.38.1.42.3.12.28.2.7.24,1.25Z"/>
      <path class="cls-3" d="M106.18,31.63c-.16.52-.21,1.03-.15,1.52.06.5.05,1.01-.03,1.52-.04.28-.04.56,0,.84.04.28.02.58-.06.9-.04.24-.05.49-.03.75.02.26.03.51.03.75-.04.16-.06.36-.06.6-.08.28-.13.55-.15.81-.02.26-.07.55-.15.87,0,.04-.01.09-.03.15-.02.06-.03.13-.03.21,0,.28-.16.42-.48.42-.04-.04-.14-.06-.3-.06-.28-.12-.52-.14-.72-.06-.2.08-.4.16-.6.24-.12.12-.24.24-.36.36-.12.12-.24.26-.36.42-.44.24-.85.31-1.23.21-.38-.1-.77-.27-1.17-.51-.24,0-.42.02-.54.06h-.18s-.1-.06-.18-.06c-.16-.12-.31-.24-.45-.36-.14-.12-.29-.24-.45-.36-.32-.32-.44-.64-.36-.96.04-.16.09-.31.15-.45.06-.14.07-.29.03-.45-.04-.2-.09-.4-.15-.6-.06-.2-.09-.4-.09-.6s.03-.4.09-.6c.06-.2.11-.4.15-.6-.08-.32-.2-.64-.36-.96-.16-.32-.28-.66-.36-1.02-.04-.32-.09-.65-.15-.99-.06-.34-.09-.67-.09-.99-.04-.36-.07-.71-.09-1.05-.02-.34-.03-.71-.03-1.11-.08-.48-.28-.86-.6-1.14-.28-.32-.52-.62-.72-.9-.2-.28-.38-.6-.54-.96-.2-.16-.46-.3-.78-.42-.04-.08-.08-.16-.12-.24-.04-.08-.1-.14-.18-.18-.04-.04-.06-.09-.06-.15s-.02-.11-.06-.15l-.36-.36c-.16-.08-.32-.08-.48,0-.16.08-.3.12-.42.12-.16.04-.3.06-.42.06s-.28.02-.48.06c-.16.08-.29.17-.39.27s-.25.19-.45.27c-.12.12-.26.21-.42.27-.16.06-.32.13-.48.21-.16.36-.18.7-.06,1.02.08.4.13.82.15,1.25.02.44.07.88.15,1.31.04.4,0,.86-.12,1.37,0,.12-.02.25-.06.39-.04.14-.06.29-.06.45.04.64,0,1.27-.12,1.88-.12.62-.28,1.25-.48,1.88.04.4.08.79.12,1.17.04.38.08.77.12,1.17v1.26c0,.52-.28.82-.84.9h-1.25c-.4.04-.79.08-1.17.12-.38.04-.73.16-1.05.36-.16.04-.31.1-.45.18-.14.08-.31.16-.51.24l-.42.42c-.08,0-.17,0-.27.03-.1.02-.19,0-.27-.03-.4-.2-.78-.36-1.14-.48-.4-.52-.64-1.08-.72-1.67-.08-.6-.22-1.16-.42-1.67.04-.24.09-.47.15-.69.06-.22.05-.43-.03-.63-.04-.12-.06-.34-.06-.66,0-.12,0-.23.03-.33.02-.1,0-.19-.03-.27-.12-.76-.08-1.41.12-1.97.08-.36.06-.74-.06-1.14-.16-.72-.22-1.45-.18-2.21.12-.64.1-1.27-.06-1.91-.12-.12-.12-.28,0-.48,0-.2,0-.41.03-.63.02-.22.05-.41.09-.57.04-.16.12-.29.24-.39.12-.1.22-.19.3-.27l.18-1.08c.08-.12.02-.32-.18-.6-.04-.08-.1-.09-.18-.03-.08.06-.16.11-.24.15l-.06-.06c0-.44,0-.85.03-1.23.02-.38,0-.77-.03-1.17-.04-.16-.04-.3,0-.42.04-.12.06-.26.06-.42,0-.12-.02-.26-.06-.42-.04-.16-.06-.32-.06-.48v-.3c0-.12.02-.24.06-.36.04-.2.08-.4.12-.6.04-.2.1-.42.18-.66-.16-.32-.23-.66-.21-1.02.02-.36-.01-.74-.09-1.14-.04-.12-.03-.26.03-.42.06-.16.11-.34.15-.54-.16-.36-.22-.77-.18-1.23.04-.46.04-.91,0-1.34.08-.24.1-.47.06-.69-.04-.22-.06-.45-.06-.69.04-.4.04-.78,0-1.14-.04-.36-.02-.72.06-1.08.04-.12.05-.22.03-.3-.02-.08-.03-.16-.03-.24-.08-.76-.06-1.45.06-2.09.04-.12.06-.28.06-.48v-.54c-.04-.16-.07-.3-.09-.42-.02-.12-.01-.26.03-.42.12-.24.17-.49.15-.75-.02-.26.05-.51.21-.75.04-.08.06-.14.06-.18l.12-.06s.06-.06.18-.06c.2-.08.39-.15.57-.21s.37-.11.57-.15c.12.08.24.16.36.24.12.08.26.16.42.24h.96c.08-.08.16-.14.24-.18.08-.04.14-.08.18-.12l.6-.42c.16-.08.33-.13.51-.15.18-.02.33.03.45.15.36.24.71.44,1.05.6.34.16.69.26,1.05.3.2.32.35.62.45.9.1.28.21.58.33.9.12.4.3.86.54,1.37,0,.2-.07.36-.21.48-.14.12-.23.3-.27.54,0,.08,0,.2.03.36.02.16.05.34.09.54,0,.16-.02.32-.06.48-.04.16-.04.34,0,.54.08.64.1,1.28.06,1.91-.04.64-.1,1.26-.18,1.85v.84c0,.4.1.8.3,1.2.16.16.31.33.45.51.14.18.27.37.39.57.24.24.5.36.78.36.56,0,1.13.05,1.7.15.58.1,1.14.11,1.7.03.12-.04.22-.05.3-.03.08.02.18.03.3.03.12.08.27.14.45.18.18.04.35.08.51.12.44.08.62.34.54.78.08.04.14.08.18.12.08-.04.16-.06.24-.06s.14-.02.18-.06c.52-.2.98-.16,1.37.12.24.2.52.35.84.45.32.1.62.31.9.63.28.48.64.93,1.08,1.34.44.42.88.87,1.31,1.34.08.12.18.23.3.33.12.1.22.19.3.27.36.36.56.72.6,1.08.12.56.26,1,.42,1.31.12.44.3.94.54,1.49v.6c.04.16.08.33.12.51.04.18.06.37.06.57.04.48.08.96.12,1.43.04.48.08.96.12,1.43,0,.04,0,.09.03.15.02.06,0,.13-.03.21Z"/>
      <path class="cls-2" d="M140.01,38.51c.12.28.16.54.12.78-.04.24-.12.48-.24.72-.04.04-.12.09-.24.15-.12.06-.22.13-.3.21-.16.04-.3.06-.42.06s-.26.04-.42.12c-.6.12-.96.44-1.08.96-.04.08-.12.18-.24.3-.28.04-.48.09-.6.15-.12.06-.36.19-.72.39-.28,0-.56.04-.84.12-.28.08-.54.24-.78.48-.08,0-.14,0-.18.03-.04.02-.1.03-.18.03-.16.08-.34.05-.54-.09-.2-.14-.3-.31-.3-.51v-.36c-.16-.08-.35-.08-.57,0-.22.08-.39,0-.51-.24v-.9c-.12-.08-.23-.15-.33-.21-.1-.06-.21-.11-.33-.15-.16-.32-.34-.66-.54-1.02-.2-.36-.4-.68-.6-.96-.16-.12-.3-.16-.42-.12-.12.04-.22.1-.3.18-.08.08-.14.17-.18.27-.04.1-.1.19-.18.27-.08.08-.14.18-.18.3-.04.12-.1.22-.18.3-.52.24-1.04.45-1.55.63-.52.18-1.02.33-1.49.45-.28.2-.56.38-.84.54-.28.16-.54.32-.78.48-.24.04-.48.1-.72.18-.24.08-.46.14-.66.18-.24-.12-.47-.15-.69-.09-.22.06-.49.13-.81.21-.36-.08-.74-.17-1.14-.27-.4-.1-.82-.19-1.26-.27-.12.04-.24.06-.36.06s-.22.02-.3.06c-.16-.08-.29-.16-.39-.24-.1-.08-.23-.14-.39-.18-.2-.08-.38-.08-.54,0-.16.08-.34.16-.54.24-.2-.08-.42-.13-.66-.15-.24-.02-.48-.05-.72-.09-.2-.2-.37-.38-.51-.54-.14-.16-.23-.36-.27-.6-.08-.08-.16-.15-.24-.21-.08-.06-.14-.11-.18-.15-.16-.56-.34-1.04-.54-1.43-.56-1.2-.94-2.51-1.14-3.94-.08-.08-.16-.17-.24-.27-.08-.1-.18-.21-.3-.33-.04-.36-.08-.71-.12-1.05-.04-.34-.1-.71-.18-1.11.08-.24.12-.46.12-.66-.08-.4-.16-.76-.24-1.08.16-.48.33-.96.51-1.43.18-.48.23-.98.15-1.49.08-.16.18-.31.3-.45.12-.14.22-.27.3-.39.36-.4.62-.86.78-1.37.12-.44.33-.82.63-1.14.3-.32.63-.58.99-.78.44-.2.87-.41,1.28-.63.42-.22.83-.41,1.22-.57.08,0,.19.01.33.03.14.02.25.01.33-.03.72-.12,1.33-.16,1.85-.12.24.04.48.04.72,0,.24-.04.46-.06.66-.06l1.26-.24c.24.04.48.1.72.18.24.08.48.06.72-.06.08,0,.15.01.21.03.06.02.11.03.15.03.2.08.38.17.54.27.16.1.34.15.54.15.44.08.72,0,.84-.24-.04-.68-.09-1.12-.15-1.31-.06-.2-.19-.52-.39-.96-.12-.24-.2-.49-.24-.75-.04-.26-.08-.51-.12-.75-.04-.16-.07-.31-.09-.45-.02-.14-.11-.29-.27-.45-.52-.16-1.16-.28-1.91-.36h-.36c-.36.16-.74.24-1.14.24s-.82.04-1.25.12c-.28.04-.57.12-.87.24-.3.12-.61.22-.93.3-.32.16-.64.08-.96-.24-.12-.36-.17-.73-.15-1.11.02-.38.05-.77.09-1.17-.08-.28-.18-.61-.3-.99-.12-.38-.18-.83-.18-1.34l.06-.42c-.04-.08-.11-.16-.21-.24-.1-.08-.19-.14-.27-.18-.12-.12-.14-.24-.06-.36,0-.12.06-.18.18-.18.32-.08.62-.14.9-.18.28-.04.56-.08.84-.12l.72-.72c.08-.04.18-.06.3-.06.92.16,1.58.22,2,.18.42-.04,1.07-.2,1.94-.48.44.04.87.1,1.28.18.42.08.85.1,1.28.06.12.12.25.23.39.33.14.1.29.21.45.33.2-.08.4-.15.6-.21.2-.06.38-.11.54-.15.24.16.5.32.78.48.2.04.37,0,.51-.12.14-.12.29-.18.45-.18.36.04.65.21.87.51.22.3.47.55.75.75.24.16.47.36.69.6.22.24.45.46.69.66.08.12.16.24.24.36.08.12.14.24.18.36.2.16.38.29.54.39.16.1.3.23.42.39.2.16.41.28.63.36.22.08.39.22.51.42.08.2.16.41.24.63.08.22.22.41.42.57.12.4.24.81.36,1.23.12.42.14.85.06,1.28,0,.2-.02.38-.06.54.08.2.14.42.18.66.04.24.1.46.18.66v.3c0,.12-.01.25-.03.39-.02.14-.01.25.03.33.08.24.18.42.3.54,0,.24-.1.46-.3.66-.08.04-.18.08-.3.12-.12.04-.22.1-.3.18-.48.28-.54.64-.18,1.08.04.04.11.11.21.21.1.1.17.21.21.33.04.16.06.33.06.51s.02.37.06.57c-.16.76-.46,1.47-.9,2.15.12.56.31,1.1.57,1.61.26.52.49,1.06.69,1.61.2.12.36.24.48.36s.26.22.42.3c.04.12.07.2.09.24.02.04.03.1.03.18,0,.4.05.8.15,1.2.1.4.23.78.39,1.14.16.36.32.7.48,1.02.16.32.36.64.6.96.2.16.36.38.48.66.12.28.22.52.3.72ZM114.25,40.24s-.06.04-.06.12c.08-.08.1-.12.06-.12ZM126.92,30.44c-.24-.6-.54-1-.9-1.2-.44-.2-.72-.46-.84-.78-.04-.16-.12-.26-.24-.3-.12-.04-.24-.08-.36-.12-.16,0-.35.01-.57.03-.22.02-.43.05-.63.09-.24,0-.47-.04-.69-.12-.22-.08-.43-.14-.63-.18-.36,0-.7.1-1.02.3-.16.12-.3.23-.42.33-.12.1-.24.23-.36.39l-.78,1.43c.08.24.18.45.3.63.12.18.12.43,0,.75.08.36.17.73.27,1.11.1.38.25.75.45,1.11.08.08.14.12.18.12.44.08.88.12,1.31.12s.86-.02,1.26-.06c.16,0,.28-.02.36-.06.44-.24.98-.46,1.61-.66.24-.04.46-.22.66-.54.16-.36.32-.75.48-1.17.16-.42.34-.83.54-1.23Z"/>
      <path class="cls-3" d="M166.24,16.22c.08.64-.02,1.1-.3,1.37-.2.24-.33.5-.39.78-.06.28-.11.58-.15.9-.08.12-.15.24-.21.36s-.13.24-.21.36c-.16.16-.31.34-.45.54-.14.2-.27.4-.39.6-.08.16-.14.34-.18.54-.04.2-.1.4-.18.6-.04.04-.07.09-.09.15-.02.06-.05.11-.09.15-.04.04-.09.06-.15.06s-.11.02-.15.06h-.3c-.88-.36-1.73-.38-2.57-.06-.16.04-.3.06-.42.06h-.42c-.12.04-.23.06-.33.06s-.19.02-.27.06c-.48.2-.9.46-1.26.78-.36.32-.7.66-1.02,1.02-.16.48-.33.97-.51,1.46-.18.5-.27,1.05-.27,1.64,0,.04-.02.11-.06.21-.04.1-.08.19-.12.27-.04.16-.09.29-.15.39-.06.1-.13.23-.21.39-.08.24-.18.48-.3.72-.12.24-.22.48-.3.72.08.28.07.54-.03.78-.1.24-.15.48-.15.72.08.36.09.69.03.99-.06.3-.13.61-.21.93-.12.36-.17.73-.15,1.11.02.38.03.75.03,1.11-.04.44-.05.9-.03,1.37.02.48.03.94.03,1.37,0,.28-.02.58-.06.9-.04.32-.06.64-.06.96-.12.24-.22.4-.3.48-.28.44-.62.75-1.02.93-.4.18-.84.25-1.31.21-.32-.04-.65-.08-.99-.12-.34-.04-.67-.08-.99-.12-.16-.04-.36-.09-.6-.15-.24-.06-.46-.13-.66-.21-.16.04-.29.07-.39.09-.1.02-.21.05-.33.09-.52-.16-1-.46-1.43-.9.04-.28.06-.56.06-.84s.02-.56.06-.84c-.04-.12-.07-.27-.09-.45-.02-.18-.07-.35-.15-.51-.04-.24-.1-.48-.18-.72-.08-.24-.1-.5-.06-.78-.04-.6-.16-1.29-.36-2.09.08-.08.15-.19.21-.33.06-.14.11-.27.15-.39.04-.12.07-.23.09-.33.02-.1.03-.21.03-.33,0-.08.02-.15.06-.21.04-.06.02-.13-.06-.21-.04-.12-.07-.25-.09-.39-.02-.14-.05-.27-.09-.39-.04-.4-.04-.8,0-1.2.04-.16.07-.31.09-.45.02-.14.05-.29.09-.45.08-.2.11-.42.09-.66-.02-.24-.13-.44-.33-.6-.04-.04-.07-.09-.09-.15-.02-.06-.07-.11-.15-.15-.04-.2-.07-.42-.09-.66-.02-.24-.07-.46-.15-.66-.04-.28-.09-.54-.15-.78-.06-.24-.09-.5-.09-.78.08-.48.1-.95.06-1.4-.04-.46,0-.93.12-1.4,0-.08-.01-.18-.03-.3-.02-.12-.03-.22-.03-.3-.04-.44-.07-.88-.09-1.31-.02-.44.05-.88.21-1.31.08-.16.12-.34.12-.54v-.6c0-.36,0-.71.03-1.05.02-.34.11-.67.27-.99,0-.12-.06-.32-.18-.6.08-.2.15-.41.21-.63.06-.22.11-.43.15-.63.08-.2.14-.39.18-.57.04-.18.08-.35.12-.51.24-.24.46-.34.66-.3.4.12.81.13,1.22.03.42-.1.83-.13,1.23-.09.12,0,.24-.03.36-.09s.24-.11.36-.15c.68-.2,1.23-.18,1.67.06.28.48.44.84.48,1.08.04.24.08.82.12,1.73.12.44.34.86.66,1.25.08.08.21.13.39.15.18.02.31,0,.39-.09.16-.12.3-.23.42-.33.12-.1.24-.23.36-.39.24-.2.47-.41.69-.63.22-.22.41-.41.57-.57.44-.2.87-.4,1.28-.6.42-.2.89-.4,1.4-.6h1.37l.12-.06s.07,0,.09-.03c.02-.02.05,0,.09.03l.18-.06c.48.24.9.3,1.25.18.64-.2,1.26-.12,1.85.24.36.16.7.32,1.02.48.32.16.66.34,1.02.54.12.16.26.32.42.48.16.16.3.32.42.48Z"/>
      <path class="cls-2" d="M196.3,19.44c.08.24.11.48.09.72-.02.24-.07.46-.15.66-.08.28-.13.57-.15.87-.02.3-.03.61-.03.93,0,.4-.01.79-.03,1.17-.02.38-.03.77-.03,1.17v.9c0,.32-.04.66-.12,1.02-.16.64-.34,1.3-.54,1.97-.2.68-.36,1.37-.48,2.09-.04.08-.07.19-.09.33-.02.14-.07.29-.15.45-.36.76-.72,1.59-1.08,2.51-.16.2-.33.42-.51.66-.18.24-.37.46-.57.66-.16.12-.33.22-.51.3-.18.08-.35.16-.51.24-.08,0-.14.08-.18.24.08.08.15.18.21.3s.11.22.15.3c-.32.48-.8.94-1.43,1.37-.16.04-.35.09-.57.15-.22.06-.45.11-.69.15-.4.24-.86.56-1.37.96-.04.08-.1.19-.18.33-.08.14-.16.25-.24.33-.28.16-.55.22-.81.18-.26-.04-.55-.08-.87-.12-.12.04-.23.09-.33.15-.1.06-.21.13-.33.21-.08.04-.17.11-.27.21-.1.1-.19.17-.27.21-.48.2-.96.26-1.43.18-.48-.08-.96-.06-1.43.06-.2-.12-.41-.22-.63-.3-.22-.08-.43-.16-.63-.24,0-.08,0-.16.03-.24.02-.08.05-.18.09-.3-.08-.28-.26-.44-.54-.48-.28-.08-.55-.16-.81-.24-.26-.08-.53-.08-.81,0-.28,0-.42-.2-.42-.6-.08-.36-.22-.54-.42-.54h-.24c-.28.12-.55.13-.81.03-.26-.1-.51-.25-.75-.45-.16-.16-.25-.38-.27-.66-.02-.28-.11-.56-.27-.84-.12-.2-.31-.37-.57-.51-.26-.14-.49-.29-.69-.45-.24-.6-.48-1.17-.72-1.7-.24-.54-.46-1.07-.66-1.58-.12-.24-.17-.45-.15-.63.02-.18.03-.41.03-.69l-.18-.3-.12-.24c-.28-.8-.46-1.59-.54-2.39-.08-.8,0-1.61.24-2.45-.04-.12-.09-.24-.15-.36s-.13-.22-.21-.3c-.08-.2-.07-.4.03-.6.1-.2.15-.38.15-.54-.08-.56-.06-1.02.06-1.37.08-.2.1-.4.06-.6-.04-.2-.04-.38,0-.54.12-.48.2-.95.24-1.4.04-.46.08-.91.12-1.34.04-.88.16-1.73.36-2.57.08-.32.2-.6.36-.84.16-.24.32-.48.48-.72.08-.08.18-.14.3-.18.12-.04.24-.08.36-.12.24-.04.49-.08.75-.12.26-.04.57-.08.93-.12.2.04.43.08.69.12.26.04.53.06.81.06.28.04.56.07.84.09.28.02.58.05.9.09.04.12.08.22.12.3.04.08.08.16.12.24,0,.28-.01.55-.03.81-.02.26-.03.53-.03.81.04.12.09.23.15.33.06.1.11.23.15.39-.04.16-.09.34-.15.54-.06.2-.13.4-.21.6.12.64.18,1.31.18,2s.04,1.38.12,2.06c.08.44.14.87.18,1.28.04.42.12.85.24,1.28-.04.28-.02.56.06.84.08.28.16.56.24.84.12.28.21.56.27.84.06.28.13.58.21.9.2.64.5,1.22.9,1.73.24.24.42.4.54.48.08.04.17.06.27.06s.19.02.27.06c.28,0,.5-.08.66-.24.16-.16.34-.26.54-.3.44-.2.86-.36,1.26-.48.2.04.4.06.6.06h.42l.96-.6c.2-.32.34-.68.42-1.08.08-.4.26-.74.54-1.02.2-.32.38-.64.54-.96.16-.32.36-.58.6-.78.08-.56.14-1.08.18-1.55.04-.48.14-.96.3-1.43.04-.12.05-.25.03-.39-.02-.14-.03-.27-.03-.39-.04-.24-.07-.47-.09-.69-.02-.22-.03-.37-.03-.45.04-.44.06-.84.06-1.2s.02-.7.06-1.02c.04-.32.06-.65.06-.99s.02-.65.06-.93c.08-.64.36-1.08.84-1.31.16-.08.3-.15.42-.21.12-.06.26-.11.42-.15.16-.04.32-.06.48-.06s.36-.02.6-.06c.2.04.41.1.63.18.22.08.45.16.69.24.24.04.47.04.69,0,.22-.04.45-.1.69-.18.16.04.3.08.42.12.12.04.26.1.42.18.04.04.08.09.12.15.04.06.06.13.06.21.04.2.08.42.12.66.04.24.06.48.06.72.04.48.07.96.09,1.43.02.48.09.96.21,1.43Z"/>
      <g>
        <path class="cls-3" d="M84.05,55.48c-.14.51-.23,1.03-.25,1.55-.03.52-.06,1.04-.08,1.55-.03.51-.04,1.03-.04,1.55v1.55c0,.42-.03.85-.08,1.27-.06.42-.1.86-.13,1.32,0,.11,0,.24-.02.38-.01.14-.02.28-.02.43,0,.4-.06.76-.17,1.1-.08.37-.13.74-.13,1.1,0,.2-.01.41-.04.64-.03.23-.08.45-.17.68-.03.14-.04.35-.04.64-.03.23-.09.45-.17.68-.06.2-.11.39-.17.57-.06.18-.11.39-.17.62-.11.17-.22.35-.32.53-.1.18-.21.36-.32.53-.26.14-.47.33-.64.55-.28.23-.56.47-.83.72-.27.25-.53.5-.79.72-.34.28-.68.42-1.02.42-.03,0-.06.01-.11.04-.04.03-.09.04-.15.04-.54.06-.98.23-1.32.51-.03.03-.06.05-.11.06-.04.01-.09.05-.15.11-.37.06-.74.03-1.13-.08-.38-.11-.73-.26-1.04-.43h-.68c-.11,0-.23,0-.34-.02-.11-.01-.24-.04-.38-.06-.76-.17-1.5-.5-2.21-.98-.08-.08-.18-.14-.3-.17-.11-.03-.24-.06-.38-.08-.17-.03-.34-.07-.51-.13-.17-.06-.34-.11-.51-.17-.14-.08-.25-.21-.34-.36-.09-.16-.17-.29-.26-.4-.14-.28-.27-.54-.38-.79-.11-.24-.24-.5-.38-.79-.11-.23-.24-.46-.38-.7-.14-.24-.28-.46-.42-.66,0-.03.01-.04.04-.04s.04-.01.04-.04l-.08-.08s0,.05-.02.06c-.01.01-.02.04-.02.06-.03-.03-.06-.05-.11-.06-.04-.01-.08-.04-.11-.06-.11-.06-.2-.15-.25-.28-.06-.13-.11-.25-.17-.36.08-.17.13-.4.13-.68.06-.37.04-.69-.04-.98-.11-.42-.16-.85-.15-1.27.01-.42.04-.86.06-1.32,0-.14.06-.33.17-.55.2-.48.31-.91.34-1.27.28-.4.51-.82.68-1.27.17-.45.37-.88.59-1.27.14-.06.26-.11.36-.17.1-.06.21-.1.32-.13.06-.06.1-.13.13-.21.03-.08.08-.16.17-.21.08-.06.18-.11.3-.15.11-.04.24-.08.38-.11.06-.08.11-.17.15-.25s.09-.17.15-.25c.08-.08.14-.13.17-.13.65-.23,1.33-.4,2.04-.51.11-.03.23-.05.36-.06.13-.01.25-.04.36-.06.37-.11.74-.16,1.1-.13.37.03.74.03,1.1,0,.08,0,.18.01.28.04.1.03.19.06.28.08.09,0,.2.03.34.08.14.06.23.06.25,0,.28-.06.55.03.81.25.06.03.18.04.36.02.18-.01.29-.02.32-.02.25-.06.4-.18.45-.36.04-.18.04-.28-.02-.28l-.08-.08c.03-.37.02-.74-.02-1.1-.04-.37-.05-.74-.02-1.1.03-.14.04-.29.04-.45v-.45c-.03-.14-.03-.28,0-.4.03-.13.04-.26.04-.4s0-.28.02-.4c.01-.13,0-.23-.06-.32-.08-.23-.12-.45-.11-.68.01-.23.05-.45.11-.68.08-.31.15-.62.19-.94.04-.31.04-.65-.02-1.02v-.21c.11-.28.18-.57.19-.85.01-.28.04-.54.06-.77.14-.2.32-.33.53-.4.21-.07.38-.16.49-.28.45-.03.88-.03,1.27,0,.4.03.79-.01,1.19-.13.2.08.39.15.57.19.18.04.35.08.49.11.31.23.47.52.47.89v.47c0,.17-.01.34-.04.51.03.11.07.21.13.3.06.09.1.2.13.34-.03.06-.05.13-.06.23-.01.1-.04.21-.06.32.03.11.06.25.08.42.03.17.06.33.08.47,0,.45,0,.89.02,1.32.01.42,0,.85-.02,1.27,0,.45,0,.75.02.89.01.14.08.42.19.85ZM77.84,66.19c-.08-.23-.15-.45-.19-.66-.04-.21-.09-.4-.15-.57-.08-.2-.19-.38-.32-.55-.13-.17-.23-.35-.32-.55-.28-.14-.5-.28-.64-.43-.14-.06-.28-.1-.4-.13-.13-.03-.26-.06-.4-.08-.11-.06-.22-.11-.32-.15-.1-.04-.21-.08-.32-.11-.2.08-.39.17-.57.25-.18.08-.36.17-.53.25-.45.2-.76.57-.93,1.1-.03.11-.04.23-.04.34s-.01.24-.04.38c-.03.08-.08.17-.15.25-.07.08-.13.2-.19.34v.77c.06.37.16.72.32,1.04.16.33.42.6.79.83.08.03.16.08.23.15.07.07.16.13.28.19.17.17.34.25.51.25.45-.06.89-.11,1.32-.15.43-.04.84-.15,1.23-.32.17-.14.3-.28.38-.42.08-.11.16-.22.21-.32.06-.1.13-.21.21-.32v-1.1c0-.11.01-.21.04-.3Z"/>
        <path class="cls-3" d="M110.14,59.48c-.03.28-.05.57-.06.87-.01.3-.05.59-.11.87-.03.28-.04.59-.04.91s-.06.66-.17,1c-.06.08-.13.18-.21.28-.09.1-.17.22-.26.36,0,.11,0,.21.02.3.01.08.04.18.06.3-.06.14-.14.26-.25.36-.11.1-.23.18-.34.23-.28.08-.55.17-.79.25-.24.08-.49.16-.74.21-.4.06-.81.06-1.23.02s-.85-.05-1.27-.02c-.37,0-.76,0-1.17.02-.41.01-.83.02-1.25.02h-2.38c-.11.08-.23.11-.36.08-.13-.03-.25-.01-.36.04-.11-.06-.24-.06-.38-.02-.14.04-.28.04-.43-.02-.11.03-.22.05-.32.06-.1.01-.22.04-.36.06-.11-.03-.21-.06-.3-.11s-.18-.02-.3.06c.06.08.12.18.19.28.07.1.12.22.15.36.08.11.16.23.21.34.06.11.11.24.17.38.06.11.1.23.13.36.03.13.06.25.08.36.14.14.3.28.47.42.17.14.34.28.51.42.14.03.29.06.45.08.16.03.3.06.45.09l.51.08c.17.03.35.03.55,0,.2-.06.38-.05.55.02.17.07.35.12.55.15.25-.03.52-.06.79-.08.27-.03.53-.06.79-.08.11-.08.23-.16.36-.23.13-.07.25-.15.36-.23.37-.08.74-.07,1.1.04.08.14.19.28.32.43.13.14.25.3.36.47.17.25.34.5.51.74.17.24.28.52.34.83.06.14.14.28.25.43.11.14.2.27.25.38.03.14.02.27-.02.38-.04.11-.08.24-.11.38-.11.11-.25.21-.42.3-.03,0-.06.03-.09.08-.03.06-.07.1-.13.13-.17.11-.34.23-.51.34-.17.11-.33.23-.47.34-.4.34-.81.51-1.23.51-.17,0-.3.01-.38.04-.14.03-.28.08-.42.17-.14.08-.3.16-.47.21-.14,0-.28.02-.43.06-.14.04-.28.08-.43.11-.08,0-.18,0-.3-.02-.11-.01-.23-.02-.34-.02-.25.03-.51.01-.76-.04-.25-.06-.51-.08-.76-.08-.08-.03-.17-.06-.25-.08s-.17-.04-.26-.04c-.48.03-.93-.05-1.36-.23-.42-.18-.85-.38-1.27-.57-.34-.08-.58-.24-.72-.47-.2-.23-.42-.42-.66-.57-.24-.16-.5-.29-.79-.4-.17-.06-.34-.13-.51-.23-.17-.1-.35-.21-.55-.32-.03-.11-.07-.23-.13-.34-.06-.11-.11-.23-.17-.34-.06-.08-.13-.17-.23-.25-.1-.08-.19-.17-.28-.25s-.16-.18-.21-.3c-.14-.48-.28-.96-.43-1.42-.14-.47-.33-.93-.55-1.38.03-.2.05-.4.06-.62.01-.21,0-.45-.06-.7-.03-.06-.04-.13-.04-.21v-.21c0-.14,0-.26.02-.36.01-.1,0-.19-.02-.28-.03-.23-.06-.45-.08-.68-.03-.23-.01-.44.04-.64.06-.23.11-.45.17-.68.06-.23.13-.47.21-.72-.03-.06-.04-.14-.04-.25s-.01-.23-.04-.34c.06-.31.11-.62.17-.94.06-.31.13-.61.21-.89.08-.17.18-.33.28-.49.1-.16.21-.32.32-.49.2-.34.35-.67.47-.98.34-.17.55-.28.62-.32.07-.04.13-.11.19-.19.06-.08.24-.26.55-.51-.03-.08.04-.21.21-.38s.23-.31.17-.42c.26-.48.62-.86,1.1-1.15.17-.11.33-.23.49-.36.16-.13.29-.25.4-.36.14-.08.28-.12.4-.11.13.01.25.02.36.02.08-.03.18-.05.28-.06.1-.01.21-.04.32-.06.06-.03.13-.06.21-.08.08-.03.16-.07.21-.13.06-.03.11-.06.17-.08.06-.03.11-.04.17-.04.25-.03.5-.1.72-.21.23-.11.44-.23.64-.34.43.17.86.23,1.32.17.28-.03.56-.01.83.04.27.06.52.13.74.21l.59-.17c.23.03.44.1.64.21.2.11.4.23.59.34h.38s.06.05.08.06c.03.01.06.04.08.06.31.28.61.55.89.79.28.24.58.49.89.74.43.28.69.62.81,1.02.11.17.21.3.3.38.34.28.64.67.89,1.15,0,.06,0,.13.02.23.01.1.02.19.02.28-.03.14,0,.28.08.42.08.14.14.3.17.47ZM104.74,60.88v-1.06c0-.14-.01-.23-.04-.26-.03-.08-.06-.17-.11-.25s-.08-.14-.11-.17v-.72l-.13-.13c-.11,0-.25-.03-.42-.08-.06-.25-.13-.45-.21-.59-.08-.11-.2-.18-.34-.21-.14-.03-.3-.07-.47-.13-.37.11-.76.21-1.19.3-.42.08-.84.2-1.23.34-.2.03-.38.04-.55.04s-.34.01-.51.04c-.28.11-.53.29-.74.53-.21.24-.42.47-.62.7-.11.14-.21.3-.3.47-.08.17-.18.33-.3.47-.03.03-.04.11-.04.25.08.23.21.37.38.42.17.03.34.07.51.13.17.06.35.11.55.17.08-.03.16-.04.23-.04s.15-.01.23-.04c.34-.14.62-.16.85-.04.23.03.43.03.62,0,.18-.03.38-.06.57-.09.17.09.35.14.53.17.18.03.36.07.53.13.37.11.72.17,1.06.17s.68-.04,1.02-.13c.14-.14.21-.27.21-.38Z"/>
        <path class="cls-3" d="M131.39,57.27c-.08.37-.26.68-.51.93-.11.11-.21.23-.28.36-.07.13-.16.22-.28.28-.11.11-.2.21-.25.3-.06.08-.11.2-.17.34-.14.28-.38.31-.72.08-.17-.11-.28-.23-.34-.34l-.51-.04c-.06,0-.1-.01-.13-.04-.14-.06-.24-.15-.3-.28-.06-.13-.16-.23-.3-.32-.43-.2-.85-.34-1.27-.43-.43-.08-.86-.06-1.32.08-.28.37-.47.63-.55.79-.08.16-.18.43-.3.83,0,.2.04.39.11.57.07.18.13.39.19.62.14.23.33.38.55.47.11,0,.23,0,.34.02.11.01.23.04.34.06.11.08.21.16.3.23s.17.13.26.19c.2.11.39.26.57.45.18.18.38.32.57.4.23.11.44.21.64.3.2.08.4.18.59.3.17.03.32.1.45.21s.25.24.36.38c.08.17.19.34.32.51s.25.35.36.55c.08.31.16.63.23.96.07.33.11.67.11,1.04,0,.25.01.5.04.74.03.24.06.49.08.74.03.14.05.3.06.47.01.17,0,.35-.02.55-.08.17-.17.35-.25.55s-.16.41-.21.64c-.11.42-.27.82-.47,1.19-.11.14-.24.28-.38.42-.14.14-.28.28-.42.43-.08.06-.16.13-.21.21-.06.08-.11.16-.17.21-.28.17-.51.37-.68.6-.17.23-.33.47-.47.72-.2.03-.4.06-.59.11-.2.04-.41.09-.64.15-.17.03-.34.08-.51.15-.17.07-.33.13-.47.19h-1.02c-.31-.14-.61-.2-.89-.17-.28.03-.58.08-.89.17-.28.06-.48.03-.59-.09-.2-.14-.4-.25-.62-.32-.21-.07-.42-.12-.62-.15-.28-.28-.58-.55-.89-.81-.31-.25-.59-.54-.85-.85,0-.08,0-.18-.02-.28-.01-.1-.02-.19-.02-.28,0-.23,0-.43.02-.62.01-.18.02-.38.02-.57.08-.4.23-.78.45-1.15.21-.37.42-.74.62-1.1.17.03.33.06.47.08.14.03.3.07.47.13.14.11.31.21.51.3.2.08.4.17.59.25.25.14.45.2.59.17.11,0,.21.01.3.04.08.03.18.06.3.09.34.14.67.1.98-.13.14-.08.28-.18.4-.28.13-.1.23-.23.32-.4v-.57c0-.21.01-.42.04-.62,0-.08-.01-.17-.04-.25-.03-.08-.06-.18-.08-.28-.03-.1-.06-.19-.08-.28l-.59-.47c-.11-.14-.2-.29-.25-.45-.06-.16-.16-.28-.3-.36l-1.02-.3c-.17-.08-.31-.18-.43-.3-.11-.11-.23-.21-.34-.3-.06-.06-.11-.1-.17-.13-.06-.03-.11-.06-.17-.09-.11-.03-.23-.06-.34-.08-.11-.03-.24-.07-.38-.13-.17-.14-.4-.27-.68-.38-.17-.2-.28-.4-.34-.59-.06-.2-.16-.38-.3-.55-.11-.14-.23-.3-.34-.47-.11-.17-.24-.34-.38-.51-.08-.31-.16-.63-.23-.96-.07-.33-.15-.64-.23-.96-.14-.42-.16-.84-.04-1.23.06-.25.12-.52.19-.81.07-.28.16-.57.28-.85.17-.34.38-.81.64-1.4.28-.45.66-.87,1.13-1.25.47-.38.93-.77,1.38-1.17.11-.06.24-.11.38-.15.14-.04.27-.08.38-.11.34-.11.59-.21.76-.28.17-.07.36-.12.57-.15.21-.03.53-.04.96-.04h.08c.4-.14.79-.18,1.17-.13.38.06.76.14,1.13.25.08,0,.18,0,.28.02.1.01.16.02.19.02.25.14.47.31.66.51.18.2.39.38.62.55.14.08.3.16.47.23.17.07.33.15.47.23.28.23.53.48.74.77.21.28.42.55.62.81.06.2.1.4.13.59.03.2.07.41.13.64Z"/>
        <path class="cls-3" d="M146.56,51.79c.08.2.11.4.08.62-.03.21-.07.42-.13.62-.03.17-.08.33-.17.49-.08.16-.16.3-.21.45-.11.17-.23.33-.36.47-.13.14-.25.28-.36.43-.09.03-.16.08-.21.15-.06.07-.13.13-.21.19-.2.14-.51.28-.94.4-.42.13-.76.19-1.02.19-.14,0-.26-.03-.34-.08-.17,0-.34,0-.51-.02-.17-.01-.33-.02-.47-.02-.08-.06-.18-.11-.28-.17-.1-.06-.18-.11-.23-.17-.14-.06-.29-.08-.45-.08h-.45c-.11-.08-.25-.16-.4-.23-.16-.07-.3-.13-.45-.19l-.25-.77c.03-.23.06-.47.08-.74.03-.27,0-.54-.08-.83-.08-.06-.08-.13,0-.21.08-.2.08-.4,0-.6-.08-.2-.08-.4,0-.59.03-.06.04-.14.04-.25-.08-.17-.08-.33,0-.49s.16-.29.21-.4c-.03-.08-.04-.18-.04-.28v-.23s.05-.06.06-.11c.01-.04.05-.08.11-.11.23-.06.42-.16.57-.32.16-.16.33-.28.53-.36.2-.17.42-.31.66-.43.24-.11.47-.23.7-.34h.59c.17,0,.34.03.51.08.08.03.18.04.3.04h.34c.4-.06.71.1.93.47.06.14.16.23.3.25.14.03.27.07.38.13.28.25.47.58.55.98.06.17.12.34.19.51.07.17.12.34.15.51.06.17.11.35.15.53.04.18.08.36.11.53ZM146.3,61.56c-.06.17-.08.36-.08.57v.66c.03.2.03.4,0,.62-.03.21-.04.42-.04.62l-.3.42c.14.14.23.3.26.47.03.17.04.35.04.55v.62c0,.21-.01.43-.04.66-.03.2-.08.41-.17.64-.08.23-.16.47-.21.72,0,.28,0,.62-.02,1-.01.38,0,.76.02,1.13.03.54,0,1.08-.08,1.64-.08.55-.25,1.07-.51,1.55,0,.23.03.45.08.66.06.21.11.43.17.66,0,.03-.01.06-.04.11-.03.04-.04.09-.04.15-.14.2-.31.37-.51.51-.03,0-.06.01-.09.04h-.17c-.31,0-.63.02-.96.06-.33.04-.69.02-1.08-.06-.11-.06-.23-.13-.36-.21-.13-.08-.26-.16-.4-.21-.11,0-.25,0-.4-.02-.16-.01-.3-.04-.45-.06-.23-.25-.45-.52-.68-.81-.08-.06-.18-.1-.3-.13-.11-.03-.23-.07-.34-.13-.2-.14-.27-.37-.21-.68.06-.31.13-.58.21-.81.09-.37.07-.72-.04-1.06l-.17-.6c0-.23-.01-.44-.04-.64-.03-.2-.03-.4,0-.6.03-.28.04-.55.02-.81-.01-.26-.02-.52-.02-.81.03-.4.04-.79.04-1.17v-1.13c0-.14.01-.23.04-.25.14-.23.21-.45.21-.66v-.66c-.03-.23-.02-.46.02-.7.04-.24.04-.46-.02-.66v-.74c0-.24.01-.49.04-.74.03-.14.05-.29.06-.45.01-.16,0-.33-.06-.53.25-.11.47-.2.66-.25.18-.06.36-.08.53-.08h.36c.13,0,.25-.01.36-.04.28-.06.52-.11.72-.17.14.03.26.08.36.15.1.07.21.13.32.19.2,0,.4-.04.59-.13.2-.03.38-.01.53.04.16.06.28.2.36.42.03.03.05.06.06.08.01.03.04.06.06.08l.3.17c.2.03.37,0,.51-.11.14-.1.28-.16.42-.19.17,0,.27.07.3.21.08.2.14.5.17.89Z"/>
        <path class="cls-3" d="M173.33,64.41s-.04.06-.02.11c.01.04,0,.09-.02.15-.08.28-.11.55-.08.81,0,.31-.08.64-.25.98.06.11.11.23.15.36.04.13.08.26.11.4-.06.31-.12.64-.19.98-.07.34,0,.67.19.98-.03.17-.07.34-.13.51-.06.17-.11.33-.17.47-.03.14-.06.28-.11.42-.04.14-.09.33-.15.55,0-.06,0-.07-.02-.04-.01.03,0,.07.02.13.11.45.11.89,0,1.32-.11.43-.25.85-.43,1.27-.03.03-.06.08-.08.15-.03.07-.07.13-.13.19-.31.54-.6,1.09-.87,1.66-.27.57-.55,1.13-.83,1.7-.03.11-.08.24-.17.38-.08.14-.16.28-.21.42-.11.17-.21.3-.3.38-.2.17-.41.35-.64.53-.23.18-.45.36-.68.53-.28.11-.52.27-.72.47-.2.2-.38.44-.55.72-.2.06-.38.14-.55.25-.17.06-.33.17-.47.34-.06.11-.16.17-.3.17-.14.03-.26.1-.36.21-.1.11-.22.2-.36.25-.25.08-.48.23-.68.42-.25.17-.52.3-.81.38-.14.03-.28.09-.43.19-.14.1-.27.18-.38.23-.06-.03-.11-.04-.17-.04l-1.27-1.27c-.06-.51-.11-.89-.15-1.13-.04-.24-.11-.45-.21-.64-.1-.18-.28-.43-.53-.74.03-.06.04-.1.04-.13s.01-.06.04-.08c.08-.06.18-.13.3-.21.11-.08.23-.14.34-.17.23-.14.43-.29.59-.45.17-.16.35-.31.55-.45.17-.14.35-.28.55-.4.2-.13.4-.25.59-.36.2-.14.39-.29.57-.45.18-.16.35-.33.49-.53.08-.11.17-.21.26-.3l.25-.25c.03-.11.04-.22.04-.32s.01-.19.04-.28c.11-.28.1-.61-.04-.98v-.08l.3-.43s.04-.13.13-.47c0-.25,0-.46-.02-.62-.01-.16-.02-.35-.02-.57-.11-.14-.19-.22-.23-.23-.04-.01-.09,0-.15.06-.11.11-.25.2-.42.25-.17.06-.34.11-.51.17-.03,0-.08.03-.17.08-.08.06-.16.07-.21.04l-.55.38s-.05,0-.06.02c-.01.01-.04.02-.06.02h-1.06c-.08-.11-.18-.21-.3-.3-.11-.09-.21-.18-.3-.3-.2-.06-.35-.06-.45-.02-.1.04-.22.06-.36.06l-.72-.13h-.59c-.2-.14-.38-.28-.55-.4-.17-.13-.35-.25-.55-.36-.48.03-.79.04-.93.02-.14-.01-.38-.12-.72-.32-.06-.08-.1-.17-.13-.25-.03-.08-.07-.17-.13-.25-.08-.17-.15-.35-.19-.53-.04-.18-.11-.35-.19-.49-.11-.11-.17-.27-.17-.47.03-.23,0-.43-.08-.62-.09-.18-.16-.38-.21-.57-.03-.2-.1-.38-.21-.55-.11-.17-.2-.34-.26-.51.03-.31-.06-.59-.25-.85-.06-.4-.14-.76-.25-1.1.14-.51.21-.94.21-1.27,0-.23.02-.43.06-.62.04-.18.08-.38.11-.57-.03-.06-.06-.12-.08-.19-.03-.07-.07-.12-.13-.15h.04l.25-.25c.09-.06.16-.2.21-.42-.03-.11-.06-.22-.08-.32-.03-.1-.06-.21-.09-.32,0-.14.01-.23.04-.25.28-.23.45-.4.51-.51.06-.11.14-.35.26-.72.03-.03.08-.06.15-.08.07-.03.12-.06.15-.08l.26-.17c.06-.14.12-.29.19-.45.07-.16.13-.33.19-.53.23-.23.47-.44.74-.64.27-.2.55-.38.83-.55.37-.23.61-.39.72-.49.11-.1.33-.3.64-.62.2-.08.4-.18.62-.28.21-.1.42-.23.62-.4.14-.08.28-.17.42-.25.14-.08.27-.16.38-.21.14.03.26.04.36.04h.28c.17-.03.3-.11.38-.23.09-.13.18-.23.3-.32.28-.08.59-.1.93-.04.14,0,.29,0,.45.02.16.01.3.02.45.02.31,0,.62,0,.91-.02.3-.01.57-.06.83-.15.23.14.43.29.62.45.18.16.38.26.57.32.06.08.11.16.17.21.06.06.1.11.13.17.11.17.23.18.34.04.06-.06.1-.1.13-.13.03-.03.07-.06.13-.08.03-.03.06-.06.11-.11s.08-.08.11-.11c.14.11.3.23.47.36s.33.25.47.36c.14.11.29.23.45.36.16.13.3.23.45.32.11.11.3.2.55.25.06.11.11.23.17.34.06.11.11.23.17.34.14.26.28.51.4.77s.28.5.45.72c.31.4.51.84.59,1.32,0,.2-.04.4-.11.59-.07.2-.08.45-.02.77.06.14.12.3.19.49.07.19.13.38.19.57.06.28.06.55.02.79s-.09.49-.15.74c.06.11.1.22.13.32.03.1.07.22.13.36ZM167.25,64.41c-.14-.2-.26-.4-.34-.59-.03-.14-.06-.28-.11-.43-.04-.14-.06-.27-.06-.38-.03-.14-.04-.29-.04-.45s-.01-.3-.04-.45c-.03-.14-.04-.29-.04-.45s-.07-.29-.21-.4c-.08-.06-.19-.1-.32-.13s-.26-.07-.4-.13c-.11-.11-.23-.22-.36-.32-.13-.1-.25-.18-.36-.23-.11-.03-.21-.04-.3-.04-.26.03-.5.06-.74.11-.24.04-.49.06-.74.06-.06,0-.13.01-.21.04-.08.03-.16.06-.21.08-.14.14-.3.23-.49.28-.18.04-.36.09-.53.15-.11.03-.24.08-.38.17-.14.08-.24.2-.3.34-.08.17-.19.29-.32.36-.13.07-.25.13-.36.19-.11.11-.18.22-.19.32-.01.1-.04.19-.06.28-.03.11-.07.21-.13.28-.06.07-.11.15-.17.23.17.54.33.98.47,1.34.14.35.31.7.51,1.04.03.11.04.21.02.28-.01.07,0,.15.06.23.2.03.38.03.55,0,.17-.03.33-.1.47-.21.03-.03.07-.04.13-.02.06.01.1.02.13.02.11.11.21.22.3.32.08.1.17.19.26.28.23.08.44.16.64.21.2.06.4.04.59-.04.17-.11.31-.26.42-.45.11-.18.27-.3.47-.36.11,0,.23,0,.36.02.13.01.26.02.4.02.06-.06.13-.11.23-.17.1-.06.18-.11.23-.17.14-.14.28-.27.4-.38.13-.11.28-.21.45-.3.2-.14.31-.33.34-.55Z"/>
        <path class="cls-3" d="M197.98,68.23c0,.23,0,.46.02.7.01.24,0,.48-.06.7-.06.14-.07.27-.04.38.06.14.06.29.02.45-.04.16-.05.31-.02.45.06.2.07.42.04.66-.03.24-.03.48,0,.7-.11.2-.3.3-.55.3-.28,0-.59.01-.91.04-.33.03-.64.1-.96.21-.17.06-.35.08-.55.08h-.59c-.17-.11-.3-.21-.38-.3-.34.11-.62-.01-.85-.38-.11-.17-.21-.35-.28-.55-.07-.2-.11-.41-.11-.64.03-.23.03-.45,0-.68-.03-.23-.03-.47,0-.72.06-.42,0-.84-.17-1.23-.03-.08-.06-.17-.08-.25-.03-.08-.04-.17-.04-.25,0-.31-.01-.63-.04-.96-.03-.33-.08-.63-.17-.91-.03-.14-.05-.28-.06-.4-.01-.13-.02-.25-.02-.36-.08-.34-.27-.61-.55-.81-.03-.23-.06-.43-.08-.62-.03-.18-.07-.39-.13-.62-.06-.06-.17-.14-.34-.25-.11-.08-.25-.16-.4-.21-.16-.06-.3-.13-.45-.21-.06-.06-.12-.13-.19-.23-.07-.1-.15-.19-.23-.28h-.25c-.11.03-.21.05-.3.06-.08.01-.2,0-.34-.02-.06-.03-.13-.04-.21-.02-.09.01-.16.02-.21.02-.14.2-.28.41-.42.64-.11.08-.22.16-.32.23-.1.07-.18.13-.23.19-.08.08-.13.17-.13.25l-.3.89c.06.17.06.33,0,.49-.06.16-.04.32.04.49.03.08.03.17,0,.25-.03.08-.06.16-.08.21-.08.11-.1.2-.04.25.06.06.1.13.13.21.03.03.06.08.08.17v.98c0,.31-.06.62-.17.94.03.11.05.22.06.32.01.1.04.22.06.36-.03.17-.06.36-.11.57-.04.21-.05.43-.02.66.03.14.04.3.02.47-.01.17-.05.34-.11.51-.03.08-.03.17,0,.26.08.34.08.64,0,.89-.08.26-.24.52-.47.81-.03.03-.08.06-.17.08-.08.03-.16.06-.21.08-.06.06-.11.09-.17.11-.06.01-.11.04-.17.06-.11,0-.23,0-.34-.02-.11-.01-.21-.02-.3-.02-.11.03-.21.06-.28.11-.07.04-.18.11-.32.19-.37-.06-.74-.13-1.13-.21-.38-.08-.76-.06-1.13.08-.17-.03-.31-.1-.43-.21-.11-.11-.21-.24-.3-.38-.11-.17-.18-.36-.21-.57-.03-.21-.07-.42-.13-.62.06-.48.08-.81.08-1s-.04-.6-.13-1.25c.08-.45.14-.91.17-1.38.03-.47.04-.93.04-1.38v-1.83c0-.62.01-1.25.04-1.87,0-.17.01-.34.04-.51.03-.17.06-.33.08-.47.06-.31.11-.61.17-.89.06-.28.13-.55.21-.81.06-.2.16-.37.3-.51.14-.14.24-.31.3-.51.06-.4.18-.74.36-1.04.18-.3.38-.59.57-.87.14-.4.4-.55.77-.47.06,0,.08-.01.08-.04.08-.08.11-.2.06-.34-.04-.14,0-.27.11-.38.25-.23.55-.4.89-.53.34-.13.65-.25.94-.36.25,0,.43.03.51.08.37.11.72.11,1.06,0,.26-.06.48.01.68.21.28.06.55.11.81.17.25.06.52.11.81.17.11-.03.23-.05.34-.06.11-.01.23-.04.34-.06.28.11.52.28.7.49.18.21.38.43.57.66.14.11.3.16.47.13.17-.03.35-.01.55.04.14.14.29.3.45.47.16.17.32.33.49.47.03.11.06.22.11.32.04.1.08.21.11.32.14.03.24.1.3.21.06.11.1.21.13.3.28.11.57.2.85.25.14.14.27.31.38.49.11.18.3.28.55.28.06.28.11.54.17.77.06.23.11.45.17.68.06.42.16.79.3,1.1.11.23.21.46.3.7.08.24.13.5.13.79.03.17.09.33.19.47.1.14.18.3.23.47-.03.11-.05.23-.06.34-.01.11-.02.24-.02.38,0,.11,0,.21.02.3.01.08.04.2.06.34,0,.06,0,.13.02.23.01.1,0,.18-.02.23-.06.2-.07.4-.04.6.03.2.04.38.04.55Z"/>
      </g>
      <path class="cls-3" d="M181.5,5.25c0,.11.05.22.04.34s.07.24.06.35-.07.22-.09.33.13.29.1.4-.2.16-.23.26.02.27-.02.37-.12.18-.16.28-.08.22-.12.31-.03.27-.08.36-.19.11-.25.19-.24.01-.3.09.03.4-.04.47-.18.08-.26.15-.21,0-.28.06-.21-.04-.29,0-.14.12-.22.16-.06.47-.15.5-.2-.06-.29-.03-.2-.13-.28-.11-.16.26-.24.27-.18-.32-.27-.32-.18.19-.26.18-.18,0-.27-.01-.2.08-.28.05-.18-.07-.26-.1-.13-.23-.21-.27-.22.07-.3.02-.03-.42-.1-.48-.32.22-.39.16-.13-.18-.2-.25-.11-.21-.17-.28-.04-.28-.09-.36-.3.03-.36-.06-.07-.24-.12-.33.09-.35.05-.45-.02-.23-.06-.33-.13-.16-.16-.27-.07-.2-.1-.31-.19-.17-.21-.28-.1-.22-.12-.33.3-.27.29-.38-.33-.21-.33-.32.12-.23.12-.34.09-.22.1-.33.02-.22.04-.34-.08-.27-.06-.38.19-.16.22-.26.08-.2.12-.3.18-.12.22-.22.08-.18.13-.28.12-.15.17-.24-.03-.33.03-.41.21-.03.28-.11.12-.14.19-.21.08-.23.15-.3.02-.4.09-.46.25.11.33.06.19.03.28-.02.15-.09.24-.13.13-.23.22-.25.19.06.27.04.17-.09.25-.1.17-.26.26-.26.18.13.27.14.18,0,.27.03.15.24.23.27.13.22.21.26.21-.12.29-.08.21-.05.29,0,.21,0,.28.06.15.15.22.21.14.16.21.23.12.18.19.26.16.13.22.21.16.14.21.23-.19.46-.14.56.28.03.33.13-.11.33-.07.43.17.14.2.25.24.13.27.24-.11.28-.1.39.24.18.25.29-.09.25-.08.37-.18.23-.18.35Z"/>
      <path class="cls-3" d="M194.38,5.51c0,.11.05.22.04.34s.07.24.06.35-.07.22-.09.33.13.29.1.4-.2.16-.23.26.02.27-.02.37-.12.18-.16.28-.08.22-.12.31-.03.27-.08.36-.19.11-.25.19-.24.01-.3.09.03.4-.04.47-.18.08-.26.15-.21,0-.28.06-.21-.04-.29,0-.14.12-.22.16-.06.47-.15.5-.2-.06-.29-.03-.2-.13-.28-.11-.16.26-.24.27-.18-.32-.27-.32-.18.19-.26.18-.18,0-.27-.01-.2.08-.28.05-.18-.07-.26-.1-.13-.23-.21-.27-.22.07-.3.02-.03-.42-.1-.48-.32.22-.39.16-.13-.18-.2-.25-.11-.21-.17-.28-.04-.28-.09-.36-.3.03-.36-.06-.07-.24-.12-.33.09-.35.05-.45-.02-.23-.06-.33-.13-.16-.16-.27-.07-.2-.1-.31-.19-.17-.21-.28-.1-.22-.12-.33.3-.27.29-.38-.33-.21-.33-.32.12-.23.12-.34.09-.22.1-.33.02-.22.04-.34-.08-.27-.06-.38.19-.16.22-.26.08-.2.12-.3.18-.12.22-.22.08-.18.13-.28.12-.15.17-.24-.03-.33.03-.41.21-.03.28-.11.12-.14.19-.21.08-.23.15-.3.02-.4.09-.46.25.11.33.06.19.03.28-.02.15-.09.24-.13.13-.23.22-.25.19.06.27.04.17-.09.25-.1.17-.26.26-.26.18.13.27.14.18,0,.27.03.15.24.23.27.13.22.21.26.21-.12.29-.08.21-.05.29,0,.21,0,.28.06.15.15.22.21.14.16.21.23.12.18.19.26.16.13.22.21.16.14.21.23-.19.46-.14.56.28.03.33.13-.11.33-.07.43.17.14.2.25.24.13.27.24-.11.28-.1.39.24.18.25.29-.09.25-.08.37-.18.23-.18.35Z"/>
      <path class="cls-3" d="M78.51,9.86c0-.15-.15-.29-.18-.43-.03-.14-.12-.27-.17-.41-.05-.14,0-.34-.07-.46-.08-.12-.21-.22-.31-.34-.1-.11-.19-.24-.31-.33-.11-.09-.35,0-.48-.07-.12-.07-.21-.19-.36-.25-.13-.05-.23-.26-.38-.29-.14-.03-.3-.01-.45-.03-.14-.02-.29-.04-.45-.05-.14,0-.3.02-.45.02-.14,0-.3-.04-.45-.02-.14.01-.25.3-.4.32-.09.01-.19-.06-.3-.12.07-.1.11-.25.2-.32.12-.1.17-.26.27-.36.11-.1.32-.1.41-.2.11-.11.3-.14.39-.25.1-.12.1-.31.18-.42.09-.13.19-.24.26-.36.07-.13.04-.32.09-.45.06-.14.25-.24.28-.38.04-.15.09-.31.1-.45.01-.15-.23-.3-.25-.44-.02-.15.1-.32.06-.46-.04-.14-.11-.28-.18-.41-.07-.13-.26-.18-.34-.3-.09-.12-.13-.26-.24-.36-.1-.1-.12-.31-.23-.4-.12-.09-.35-.02-.47-.09-.13-.08-.26-.1-.4-.16-.13-.06-.18-.33-.32-.38-.14-.04-.29-.12-.43-.15-.14-.03-.31,0-.46,0-.15-.01-.29.14-.44.15-.15,0-.3-.07-.45-.04-.14.03-.3.05-.43.1-.14.05-.24.19-.36.26-.12.08-.26.13-.38.23-.11.1-.1.29-.2.4-.09.11-.35.11-.43.24-.07.12.03.33-.02.48-.05.13-.18.24-.22.39-.03.14-.19.27-.21.42-.02.14.1.31.1.46,0,.14,0,.29.01.44,0,.14.09.28.11.43.01.14.09.27.12.42.02.14-.06.3-.03.45.03.14-.05.31-.01.46,0,.03.02.07.03.1-.1-.09-.25-.13-.33-.22-.09-.12-.2-.21-.29-.32-.1-.12-.11-.3-.2-.4-.1-.11-.25-.17-.35-.27-.11-.11-.24-.16-.35-.25-.12-.1-.08-.38-.2-.46-.13-.09-.23-.21-.36-.28-.13-.07-.37.06-.5,0-.14-.06-.25-.21-.38-.24-.15-.04-.3-.04-.44-.05-.15-.01-.28.16-.42.18-.15.02-.28-.02-.42.02-.14.04-.29.03-.43.09-.13.07-.3.08-.42.17-.12.09-.18.25-.28.35-.1.1-.33.11-.42.22-.09.12.04.39-.03.51-.08.13-.26.19-.32.32-.06.13-.16.26-.2.4-.04.14-.11.28-.14.43-.03.14-.07.3-.08.44-.01.15.04.3.05.45,0,.15.09.29.12.43.03.14-.03.32.02.46.05.14.24.21.31.34.08.12.09.3.19.41.1.11.24.17.36.26.11.09.21.21.34.28.12.07.32-.03.47.02.13.05.25.11.4.14.14.03.25.21.41.22.14.02.29-.08.45-.08.14,0,.29.09.44.09.14,0,.28-.16.43-.18.14-.01.28-.03.43-.05.14-.02.32.16.47.13.12-.02.24-.1.37-.14-.08.04-.15.07-.22.12-.12.09-.21.21-.32.31-.12.1-.27.14-.37.24-.11.1-.22.21-.31.31-.11.11-.22.21-.31.32-.1.12-.07.32-.15.43-.09.13-.3.16-.36.29-.07.13-.15.27-.2.4-.06.14-.05.3-.08.44-.04.15.05.3.04.44-.01.15-.03.28-.01.42.02.15-.05.3,0,.44.04.14.02.32.09.45.07.13.16.26.25.38.09.12.23.2.33.3.1.1.24.17.36.26.12.09.27.11.4.19.13.08.18.28.31.35.13.06.26.16.4.21.14.04.33-.07.47-.04.14.03.28.16.42.17.15.01.29-.14.44-.15.15,0,.3.07.44.04.14-.03.33.04.47-.02.14-.05.16-.34.29-.42.12-.08.23-.15.34-.24.11-.1.25-.14.34-.26.09-.11.12-.25.2-.38.07-.12.33-.17.38-.31.05-.13.08-.29.11-.44.03-.14-.04-.31-.02-.46.02-.14-.06-.29-.05-.45,0-.14.21-.29.2-.45,0-.14-.04-.29-.05-.45-.01-.14-.08-.29-.1-.44-.02-.14-.21-.26-.24-.4,0-.04,0-.09.03-.14.1.1.31.11.4.21.1.12.23.19.33.29.1.11.05.37.15.47.11.11.37.04.48.13.12.1.16.27.27.35.13.09.17.3.29.37.13.07.29.13.42.18.14.06.35-.1.49-.06.15.04.27.21.41.22.15.01.32.09.46.07.15-.02.28-.18.42-.22.14-.04.29-.07.43-.13.13-.07.17-.27.29-.35.12-.09.23-.16.33-.26.1-.1.16-.23.25-.35.09-.12.34-.12.41-.25.08-.13.2-.24.26-.37.06-.13.1-.29.14-.43.04-.14-.08-.33-.05-.47.03-.14.23-.27.24-.42.01-.15.04-.31.03-.46Z"/>
      <rect class="cls-1" x="0" width="200" height="84"/>
    </g>
  </g>
</svg>