<?xml version="1.0" encoding="UTF-8"?>
<svg id="_レイヤー_2" data-name="レイヤー 2" xmlns="http://www.w3.org/2000/svg" xmlns:xlink="http://www.w3.org/1999/xlink" viewBox="0 0 231.16 145.42">
  <defs>
    <style>
      .cls-1 {
        fill: none;
      }

      .cls-2 {
        fill: #fff;
      }

      .cls-3 {
        fill: url(#_新規パターンスウォッチ_6);
      }

      .cls-4 {
        fill: #fabe00;
      }

      .cls-5 {
        fill: #87bd2c;
      }

      .cls-6 {
        fill: #709630;
      }
    </style>
    <pattern id="_新規パターンスウォッチ_6" data-name="新規パターンスウォッチ 6" x="0" y="0" width="10.12" height="27.52" patternTransform="translate(-327.52 -84.48)" patternUnits="userSpaceOnUse" viewBox="0 0 10.12 27.52">
      <g>
        <rect class="cls-1" x="0" y="0" width="10.12" height="27.52"/>
        <rect class="cls-5" y="0" width="3.94" height="27.52"/>
        <rect class="cls-1" x="3.94" y="0" width="6.17" height="27.52"/>
      </g>
    </pattern>
  </defs>
  <g id="_縦組" data-name="縦組">
    <g>
      <g>
        <path class="cls-6" d="M2.82,15.74c-.24.04-.45.03-.64-.06-.19-.08-.31-.25-.37-.5-.04-.2,0-.39.11-.56s.29-.28.52-.32c.92-.18,1.68-.45,2.29-.79.61-.35,1.08-.83,1.42-1.45.33-.62.54-1.41.6-2.39.01-.22.09-.38.25-.5.15-.12.34-.17.55-.14.24.01.42.09.54.24s.17.32.16.53c-.07,1.22-.33,2.24-.77,3.04-.45.81-1.06,1.44-1.84,1.9s-1.72.8-2.82,1.01ZM4.2,9.08c-.21,0-.4-.07-.55-.22-.15-.15-.23-.33-.23-.56V1.29c0-.24.08-.43.23-.57.15-.14.34-.21.55-.21s.4.07.55.21.23.33.23.57v7c0,.23-.08.41-.23.56s-.34.22-.55.22ZM10.28,8.6c-.77,0-1.38-.09-1.84-.28-.45-.19-.78-.49-.97-.91-.19-.42-.29-.99-.29-1.7v-2.02c0-.71.1-1.28.29-1.71.19-.42.52-.73.97-.91.45-.18,1.07-.27,1.84-.27h1.73c.78,0,1.4.09,1.84.27.45.18.76.48.95.91.19.43.28,1,.28,1.71v2.02c0,.71-.09,1.28-.28,1.7-.19.42-.5.72-.95.91-.45.19-1.06.28-1.84.28h-1.73ZM8.74,3.96h4.83v-.08c0-.43-.05-.76-.14-1-.09-.24-.26-.4-.5-.49s-.59-.14-1.04-.14h-1.45c-.68,0-1.13.11-1.36.33-.23.22-.34.65-.34,1.3v.08ZM10.44,7.14h1.45c.45,0,.8-.04,1.04-.14.24-.09.41-.25.5-.49.09-.24.14-.57.14-.99v-.24h-4.83v.24c0,.63.11,1.06.34,1.28.23.22.68.33,1.36.33ZM13.28,15.56c-.84,0-1.51-.08-2.01-.24-.5-.16-.86-.42-1.07-.8s-.32-.88-.32-1.53v-3.2c0-.24.08-.42.23-.56.15-.14.34-.2.55-.2s.4.07.55.2.23.32.23.56v3.01c0,.33.05.58.14.76.1.18.28.31.54.37s.65.1,1.15.1c.57,0,.99-.03,1.28-.08.29-.06.5-.17.63-.36.13-.18.24-.45.33-.82.06-.23.19-.39.39-.49.2-.1.42-.12.66-.07.24.07.41.19.5.37.1.18.12.38.08.62-.1.61-.29,1.09-.57,1.43-.28.34-.68.58-1.21.71s-1.23.2-2.1.2Z"/>
        <path class="cls-6" d="M25.23,15.57c-.18,0-.32-.07-.43-.2-.1-.13-.15-.28-.15-.43s.05-.3.15-.43c.1-.13.24-.2.43-.2h6.44v-.88h-4.83c-.16,0-.29-.06-.38-.18-.1-.12-.14-.25-.14-.4s.05-.28.14-.4c.1-.12.22-.18.38-.18h4.83v-.85h-2.04c-.65,0-1.16-.07-1.53-.22-.37-.15-.64-.41-.81-.77-.17-.37-.25-.89-.25-1.56s.08-1.19.25-1.55c.16-.37.43-.63.81-.77.37-.15.88-.22,1.53-.22h5.56c.65,0,1.16.07,1.53.22.37.15.64.41.81.77s.25.89.25,1.55-.08,1.19-.25,1.56-.43.63-.81.77c-.37.15-.88.22-1.53.22h-1.96v.85h4.86c.16,0,.29.06.38.18s.14.25.14.4-.05.28-.14.4-.22.18-.38.18h-4.86v.88h6.48c.18,0,.32.07.42.2.1.13.15.27.15.43s-.05.3-.15.43c-.1.13-.24.2-.42.2h-14.48ZM25.29,5.44c-.18,0-.32-.07-.42-.2s-.15-.28-.15-.42c0-.16.05-.31.15-.44.1-.14.24-.2.42-.2h3.98c-.05-.14-.1-.27-.15-.4-.06-.13-.1-.25-.14-.35-.09-.21-.07-.4.05-.56h-2.72c-.18,0-.33-.07-.43-.2-.11-.14-.16-.28-.16-.44s.05-.31.16-.44c.11-.14.25-.2.43-.2h5.34v-.8c0-.23.08-.41.23-.55s.34-.21.55-.21c.23,0,.42.07.57.21.15.14.23.33.23.55v.8h5.3c.18,0,.33.07.43.2s.16.28.16.44-.05.31-.16.44-.25.2-.43.2h-2.91c.12.16.15.35.07.56-.05.1-.1.22-.16.35-.06.13-.12.26-.18.4h4.25c.18,0,.32.07.42.2.1.14.15.28.15.44,0,.15-.05.29-.15.42s-.24.2-.42.2h-14.31ZM28.66,8.35h3.01v-.9h-1.58c-.51,0-.86.05-1.06.15-.2.1-.32.35-.37.75ZM30.09,10.3h1.58v-.95h-3.01c.03.42.15.68.35.79.2.11.56.16,1.08.16ZM30.8,4.17h2.98c.09-.19.18-.4.26-.62s.16-.41.21-.55c.02-.02.04-.05.04-.08,0-.03.01-.05.03-.06h-3.98s.02.05.03.08c.01.03.02.05.03.08.04.12.11.3.19.53.08.23.15.44.2.63ZM33.23,8.35h2.92c-.03-.4-.15-.65-.34-.75-.19-.1-.54-.15-1.05-.15h-1.53v.9ZM33.23,10.3h1.53c.52,0,.88-.05,1.06-.16.19-.11.3-.37.33-.79h-2.92v.95Z"/>
        <path class="cls-6" d="M49.13,15.69c-.54.11-.88-.05-1-.49-.07-.2-.04-.39.08-.57s.3-.28.53-.31c1.28-.23,2.25-.61,2.91-1.14.66-.53,1.07-1.29,1.24-2.28h-3.55c-.19,0-.36-.07-.5-.2s-.21-.3-.21-.49.07-.36.21-.5.31-.21.5-.21h3.67v-1.96h-1.1c-.19,0-.36-.07-.49-.2-.14-.14-.21-.3-.22-.49-.84.68-1.7,1.24-2.58,1.68-.2.1-.41.12-.61.06s-.36-.2-.46-.4c-.08-.18-.08-.37,0-.55.08-.19.22-.33.42-.42.49-.23.97-.5,1.45-.81.48-.31.93-.64,1.35-.99-.25-.21-.54-.46-.88-.74-.33-.28-.62-.5-.84-.65-.15-.11-.23-.27-.24-.46-.01-.19.04-.36.17-.49.14-.14.3-.21.48-.24.19-.02.36.03.52.15.15.11.33.26.55.44.22.18.45.36.68.54.23.18.43.35.59.49.46-.49.85-.96,1.16-1.41.33-.5.17-.75-.48-.75h-2.63c-.17,0-.32-.06-.44-.2-.12-.13-.19-.29-.19-.47s.06-.34.19-.47c.12-.13.27-.2.44-.2h3.01c.58,0,1.03.11,1.35.33.32.22.5.52.54.88.03.37-.1.77-.39,1.22-.6.92-1.37,1.81-2.29,2.67h7c-1.47-1.29-2.61-2.83-3.42-4.62-.07-.17-.07-.34,0-.5.07-.17.18-.29.34-.37.17-.09.36-.11.56-.05s.35.17.42.34c.15.28.3.57.45.85.15.28.31.56.49.83.2-.16.42-.33.65-.52.23-.19.44-.37.65-.55.2-.18.36-.33.48-.44.15-.12.31-.19.5-.2.19,0,.35.06.49.2.15.14.22.3.22.49s-.07.35-.2.48c-.15.14-.34.3-.58.49-.24.19-.48.39-.73.59-.25.2-.47.38-.66.54.14.17.28.33.43.49.15.16.31.32.47.48.19-.15.41-.32.66-.53s.49-.41.72-.61.42-.37.55-.49c.14-.14.3-.21.49-.21.19,0,.36.06.49.2.14.14.21.3.21.49s-.07.35-.21.48c-.22.19-.51.44-.88.75-.37.31-.7.58-.99.82.35.26.73.51,1.14.76.41.24.84.47,1.31.69.19.09.31.24.37.44.05.2.03.4-.08.59-.11.19-.28.31-.5.36-.22.04-.43.01-.64-.1-.87-.45-1.68-.96-2.43-1.51,0,.01,0,.03,0,.04,0,.02,0,.04,0,.06,0,.2-.07.38-.22.52-.15.14-.32.21-.51.21h-1.27v1.96h3.67c.2,0,.37.07.51.21.14.14.2.31.2.5s-.07.36-.2.49c-.14.14-.31.2-.51.2h-3.67v2.11c0,.46.11.78.34.93.23.16.69.24,1.39.24.6,0,1.02-.1,1.26-.29.24-.19.41-.54.53-1.04.06-.23.18-.39.37-.49.19-.1.4-.12.61-.05.24.07.41.19.5.36.1.17.12.36.08.58-.18.88-.55,1.5-1.11,1.86-.56.36-1.31.54-2.25.54-.79,0-1.42-.07-1.9-.21s-.81-.4-1.02-.76c-.21-.37-.31-.89-.31-1.56v-2.21h-1.94c-.18,1.33-.69,2.37-1.51,3.14-.83.77-2.07,1.32-3.74,1.65ZM54.47,9.49h1.85v-1.96h-1.85v1.96Z"/>
        <path class="cls-6" d="M80.68,15.52c-1.16,0-2.16-.05-3-.15-.84-.1-1.57-.27-2.17-.52-.6-.24-1.13-.58-1.58-.99-.18.12-.4.28-.65.46-.25.18-.5.35-.72.52-.23.16-.4.29-.51.37-.18.11-.39.15-.61.11s-.4-.15-.51-.33c-.11-.19-.14-.39-.08-.6.06-.21.18-.37.37-.47.18-.09.46-.24.82-.45s.7-.41.99-.59v-4c0-.29-.05-.5-.15-.61-.1-.11-.3-.17-.6-.17h-.9c-.22,0-.39-.07-.51-.2-.12-.14-.19-.3-.19-.49s.06-.36.19-.49c.12-.14.29-.2.51-.2h1.39c.59,0,1.02.14,1.29.42.27.28.41.71.41,1.3v4.32c.43.37.9.67,1.42.88.52.22,1.15.37,1.91.46.76.09,1.72.14,2.87.14,1.07,0,2-.01,2.8-.04.8-.03,1.5-.07,2.1-.11.23-.02.42.03.58.16.16.13.24.3.24.52s-.07.39-.2.53c-.13.14-.33.2-.59.2-.41.01-.9.02-1.48.03-.58,0-1.17.01-1.78.02-.61,0-1.17,0-1.67,0ZM74.54,3.98c-.15.14-.32.2-.52.2s-.37-.07-.5-.22c-.14-.17-.32-.37-.55-.61-.23-.24-.47-.47-.71-.71-.24-.23-.44-.42-.61-.55-.14-.12-.2-.28-.2-.46s.06-.34.19-.48c.14-.15.3-.23.5-.25.2-.02.38.04.54.16.17.14.38.32.63.56.25.24.49.47.73.71.24.23.43.43.58.59.15.16.22.34.2.54-.01.2-.1.37-.27.52ZM80.43,14.04c-.22,0-.4-.07-.55-.2-.15-.14-.23-.32-.23-.56v-.85h-3.81c-.18,0-.34-.07-.47-.2-.13-.13-.2-.29-.2-.47s.06-.33.2-.46c.13-.12.29-.19.47-.19h3.81v-.99h-2.89c-.18,0-.33-.06-.46-.19-.12-.12-.19-.28-.19-.46s.06-.33.19-.46c.12-.12.28-.19.46-.19h2.89v-.95h-3.5c-.18,0-.33-.06-.46-.19-.12-.12-.19-.28-.19-.46s.06-.34.19-.47c.12-.13.28-.2.46-.2h1.79l-.39-.87c-.08-.16-.08-.33,0-.53h-1.94c-.18,0-.34-.06-.47-.19-.13-.12-.2-.28-.2-.46s.07-.34.2-.47.29-.2.47-.2h4.05v-.97h-3.04c-.18,0-.33-.06-.46-.19s-.19-.28-.19-.46.06-.33.19-.46c.12-.12.28-.19.46-.19h3.04v-.65c0-.23.08-.41.23-.55s.34-.21.55-.21.4.07.54.21.22.33.22.55v.65h3.09c.18,0,.33.06.46.19s.19.28.19.46-.06.33-.19.46c-.12.12-.28.19-.46.19h-3.09v.97h4.18c.18,0,.33.07.46.2.12.13.19.29.19.47s-.06.33-.19.46-.28.19-.46.19h-2.01c.08.17.09.35.02.53l-.39.87h1.79c.19,0,.35.07.48.2.12.13.19.29.19.47s-.06.33-.19.46-.28.19-.48.19h-3.59v.95h2.94c.18,0,.33.06.46.19.12.12.19.28.19.46s-.06.33-.19.46c-.12.12-.28.19-.46.19h-2.94v.99h4.11c.19,0,.35.06.48.19.12.12.19.28.19.46s-.06.34-.19.47c-.12.13-.28.2-.48.2h-4.11v.85c0,.24-.07.42-.22.56-.15.14-.33.2-.54.2ZM79.47,6.58h1.97c.08-.2.17-.44.27-.71.1-.27.19-.48.27-.64l.02-.05h-3.11l.02.05c.09.16.19.37.29.64.1.27.19.5.27.71Z"/>
        <path class="cls-6" d="M95.03,15.84c-.56.15-.91,0-1.07-.46-.08-.23-.07-.44.04-.63.11-.19.3-.32.59-.39,1.17-.27,2.24-.61,3.21-1.01.97-.4,1.85-.86,2.64-1.38-.58-.57-1.1-1.2-1.57-1.9-.47-.7-.89-1.48-1.25-2.34h-1.62c-.21,0-.39-.07-.53-.21-.14-.14-.2-.31-.2-.52,0-.19.07-.36.2-.51.14-.15.31-.22.53-.22h4.79v-2.04h-6.14c-.21,0-.39-.07-.51-.21-.12-.14-.19-.3-.19-.48,0-.19.06-.36.19-.5.12-.14.29-.21.51-.21h6.14V.92c0-.25.08-.45.25-.59.16-.15.35-.22.57-.22.23,0,.42.07.57.22s.23.35.23.59v1.9h6.14c.2,0,.37.07.5.21.13.14.2.31.2.5,0,.18-.07.34-.2.48-.13.14-.3.21-.5.21h-6.14v2.04h1.09c.8,0,1.41.15,1.82.45.41.3.61.7.61,1.19s-.22,1.03-.66,1.61c-.67.92-1.45,1.75-2.33,2.5.8.52,1.69.97,2.65,1.34.96.37,2,.67,3.09.9.26.04.45.16.57.33s.15.39.09.65c-.06.25-.19.43-.41.53-.22.1-.45.12-.71.07-1.26-.29-2.44-.67-3.54-1.13-1.1-.46-2.11-1.03-3.03-1.71-1.82,1.27-4.03,2.21-6.63,2.84ZM101.68,11.08c.78-.63,1.47-1.33,2.06-2.09.33-.41.44-.72.34-.93-.1-.22-.46-.32-1.09-.32h-3.77c.29.66.65,1.26,1.06,1.82.41.55.88,1.07,1.4,1.53Z"/>
        <path class="cls-6" d="M118.16,15.83c-.57,0-.86-.24-.88-.71-.01-.23.05-.41.19-.56.14-.15.32-.23.54-.24.45-.02.75-.1.9-.22.15-.12.22-.36.22-.71v-3.48c-.25.11-.49.22-.72.31-.23.1-.43.18-.59.26-.22.09-.42.1-.61.02s-.33-.23-.42-.46c-.08-.19-.07-.38.02-.57.09-.19.24-.32.46-.4.21-.09.49-.2.82-.34.33-.14.68-.28,1.04-.43v-3.47h-1.68c-.19,0-.36-.07-.49-.2-.14-.14-.2-.3-.2-.49s.07-.36.2-.49c.14-.14.3-.2.49-.2h1.68V.82c0-.21.07-.39.21-.52.14-.13.31-.2.5-.2.2,0,.38.07.52.2.14.13.21.3.21.52v2.62h1.21c.19,0,.36.07.49.2.14.14.2.3.2.49s-.07.36-.2.49c-.14.14-.3.2-.49.2h-1.21v2.84c.19-.08.37-.15.52-.21s.27-.12.35-.16c.21-.09.41-.1.59-.02s.3.2.36.36c0,.02,0,.03.02.03.1-.12.25-.19.44-.19h2.09c.02-.18.05-.37.08-.55.03-.19.05-.37.06-.55h-1.79c-.17,0-.32-.06-.44-.19-.12-.12-.19-.27-.19-.44,0-.18.06-.33.19-.45.12-.12.27-.18.44-.18h1.09c-.16-.07-.27-.18-.34-.34-.08-.19-.19-.42-.33-.69s-.28-.52-.4-.76c-.09-.17-.11-.34-.04-.5s.18-.29.37-.37c.19-.08.37-.09.54-.03.16.06.29.18.38.35.12.22.25.46.38.75.13.28.24.52.31.7s.09.35.03.5c-.06.15-.17.27-.34.35-.01.01-.02.02-.03.02s-.02,0-.03.02h3.89c.11-.23.24-.52.39-.88.15-.36.29-.71.42-1.05.14-.34.24-.61.31-.79.07-.19.19-.33.36-.41s.36-.07.58.02c.17.06.29.17.37.35.07.18.07.35,0,.54-.07.17-.16.38-.28.65-.12.26-.24.53-.37.82-.13.28-.25.54-.37.76h.99c.18,0,.33.06.45.18s.18.27.18.45c0,.17-.06.32-.18.44s-.27.19-.45.19h-4.57c-.03.39-.08.75-.15,1.11h5.32c.17,0,.32.06.44.19.12.12.19.28.19.46,0,.17-.06.32-.19.44-.12.12-.27.19-.44.19h-5.58c-.04.16-.09.32-.13.48-.04.16-.09.32-.14.48h2.7c.6,0,1.06.11,1.38.33.32.22.49.51.51.88.02.36-.14.77-.47,1.21-.28.4-.62.77-1,1.12.43.23.88.42,1.34.58.46.16.96.29,1.48.39.27.05.46.17.55.36.1.19.11.39.04.59-.07.23-.21.37-.42.43s-.43.07-.65,0c-1.3-.31-2.45-.8-3.45-1.48-.49.33-1.02.62-1.59.88-.57.26-1.18.48-1.81.66-.22.06-.42.06-.6,0-.19-.05-.32-.18-.4-.4-.08-.2-.06-.39.05-.57s.29-.29.54-.35c.5-.15.98-.31,1.44-.49.46-.18.88-.38,1.27-.61-.31-.28-.59-.59-.85-.91-.26-.32-.49-.67-.7-1.03-.36.76-.8,1.48-1.31,2.16-.51.68-1.11,1.3-1.8,1.87-.17.14-.36.2-.57.19-.21-.01-.38-.1-.5-.25-.15-.17-.2-.35-.16-.54.04-.19.14-.36.31-.49.88-.7,1.61-1.52,2.17-2.45.56-.93.98-1.94,1.27-3.04h-1.82c-.27,0-.46-.13-.58-.39-.06.07-.14.13-.25.19-.18.09-.4.2-.65.31s-.52.24-.8.37v4.37c0,.79-.19,1.36-.58,1.71-.38.35-1,.52-1.84.52ZM123.15,2.33c-.2,0-.38-.06-.52-.17-.14-.11-.21-.28-.21-.49-.01-.21.06-.38.2-.49s.33-.18.54-.19c.51,0,1.11-.02,1.79-.07.68-.04,1.39-.1,2.12-.17.73-.07,1.43-.14,2.09-.23.66-.08,1.23-.17,1.71-.25.26-.06.46-.03.61.07.15.1.23.24.25.42.04.21.01.39-.09.54s-.28.23-.5.26c-.55.1-1.17.2-1.84.28-.67.08-1.37.16-2.09.23-.72.07-1.43.12-2.12.16-.7.04-1.34.07-1.93.09ZM127.58,4.98c-.18.07-.35.07-.51,0-.16-.07-.27-.18-.34-.34-.07-.18-.17-.44-.31-.78-.14-.34-.27-.62-.38-.85-.07-.16-.07-.32,0-.49.06-.16.18-.27.37-.33.19-.06.37-.05.52,0,.15.06.27.18.35.35.07.15.14.33.23.54s.17.41.26.61.14.36.18.48c.07.17.07.33,0,.48-.07.15-.18.25-.34.32ZM127.91,12.5c.14-.12.27-.25.39-.37s.24-.25.36-.38c.23-.27.3-.48.22-.62s-.28-.21-.59-.21h-1.84c.23.32.46.61.7.87.24.26.49.5.76.71Z"/>
        <path class="cls-6" d="M5.22,34.69c-.23.01-.41-.05-.56-.19-.15-.14-.23-.31-.25-.53-.01-.22.04-.4.17-.54.12-.15.3-.23.53-.25.32-.03.56-.08.72-.13.16-.05.29-.15.37-.31.08-.15.17-.4.25-.74.07-.29.13-.66.18-1.1s.1-.9.14-1.38c.04-.48.08-.94.1-1.37.02-.35-.03-.59-.15-.72-.12-.13-.37-.2-.73-.2h-.73c-.11,1.3-.37,2.56-.76,3.78-.39,1.22-.94,2.29-1.64,3.2-.11.18-.28.3-.49.36-.22.06-.42.02-.61-.1-.18-.11-.29-.27-.32-.46-.03-.19,0-.37.12-.53.79-.96,1.37-2.11,1.73-3.45.36-1.34.54-2.9.54-4.69v-1.5h-1.55c-.22,0-.39-.07-.51-.2-.12-.14-.19-.3-.19-.49s.06-.35.19-.48c.12-.13.29-.2.51-.2h2.43v-2.53c0-.23.07-.41.22-.55.15-.14.33-.21.54-.21s.4.07.54.21c.15.14.22.33.22.55v2.53h2.06c.22,0,.39.07.51.2.12.13.19.29.19.48s-.06.36-.19.49c-.12.14-.29.2-.51.2h-2.97v2.01h.95c.76,0,1.3.17,1.62.5.32.33.46.86.44,1.57-.03.83-.09,1.61-.17,2.35s-.16,1.4-.25,1.98c-.09.62-.24,1.11-.46,1.45-.22.35-.5.59-.86.73s-.81.22-1.37.23ZM9.21,34.62c-.23.12-.45.16-.67.1s-.39-.18-.5-.36c-.1-.19-.12-.39-.06-.59.06-.2.2-.36.4-.46.74-.37,1.39-.8,1.95-1.29.57-.49,1.07-1.03,1.5-1.62-.91-1.54-1.46-3.38-1.67-5.52-.18.25-.37.49-.57.73s-.39.46-.59.66c-.15.16-.32.25-.52.27-.2.02-.38-.03-.55-.17-.14-.11-.22-.27-.25-.46-.03-.19.03-.36.18-.51.46-.48.92-1.04,1.35-1.69.44-.65.83-1.33,1.17-2.02.34-.7.61-1.33.8-1.91.08-.24.21-.4.41-.48.19-.08.4-.08.61-.02.18.06.32.18.42.36.1.18.1.39,0,.63-.16.43-.34.87-.55,1.32-.21.45-.43.89-.67,1.33h5.02c.2,0,.37.07.49.2s.19.29.19.48-.06.36-.19.49-.29.2-.49.2h-.94c-.12,1.2-.34,2.31-.65,3.31s-.72,1.93-1.22,2.77c.42.55.9,1.07,1.45,1.56.55.48,1.17.92,1.88,1.32.19.11.31.28.35.49.04.21,0,.42-.13.61-.14.2-.32.32-.56.35s-.46-.03-.68-.16c-.65-.41-1.24-.85-1.78-1.32-.54-.47-1.02-.98-1.45-1.54-.93,1.17-2.09,2.14-3.48,2.92ZM12.71,28.95c.34-.69.61-1.42.82-2.2.21-.78.35-1.59.43-2.44h-2.41c.06.85.18,1.66.37,2.44.19.78.45,1.51.79,2.2Z"/>
        <path class="cls-6" d="M25.16,23.61c-.19,0-.35-.06-.46-.18s-.17-.26-.17-.43.06-.32.17-.44c.11-.12.27-.19.46-.19h5.03c.19,0,.34.06.45.19.11.12.16.27.16.44s-.05.31-.16.43-.26.18-.45.18h-5.03ZM25.97,25.97c-.19,0-.35-.06-.46-.18-.11-.12-.17-.26-.17-.43,0-.18.06-.33.17-.45.11-.12.27-.18.46-.18h3.45c.19,0,.35.06.46.18s.17.27.17.45c0,.17-.06.31-.17.43s-.27.18-.46.18h-3.45ZM25.97,28.33c-.19,0-.35-.06-.46-.19-.11-.12-.17-.27-.17-.44s.06-.32.17-.44c.11-.12.27-.19.46-.19h3.45c.19,0,.35.06.46.19s.17.27.17.44-.06.32-.17.44-.27.19-.46.19h-3.45ZM27.71,34.25c-.61,0-1.09-.07-1.43-.21s-.58-.39-.72-.74c-.14-.35-.21-.84-.21-1.46s.07-1.12.21-1.47.38-.59.72-.73.82-.21,1.43-.21,1.11.07,1.45.21.58.39.72.73c.14.35.21.84.21,1.47s-.07,1.11-.21,1.46c-.14.35-.38.6-.72.74s-.82.21-1.45.21ZM25.99,21.26c-.19,0-.35-.06-.46-.18s-.17-.27-.17-.45.06-.33.17-.46c.11-.12.27-.19.46-.19h3.42c.19,0,.35.06.47.19.12.12.18.28.18.46s-.06.33-.18.45-.28.18-.47.18h-3.42ZM27.71,32.99c.28,0,.49-.03.63-.08.14-.05.23-.16.27-.32.04-.16.07-.42.07-.76,0-.5-.06-.82-.17-.96s-.38-.21-.8-.21-.67.07-.78.21-.17.46-.17.96c0,.34.02.59.07.76.04.16.14.27.27.32.14.05.34.08.61.08ZM35.21,34.9c-.18,0-.34-.07-.48-.2-.14-.13-.21-.3-.21-.5v-3.96c-.45.59-.97,1.16-1.55,1.72-.58.56-1.13,1.02-1.65,1.39-.17.11-.36.17-.56.16s-.37-.09-.49-.26c-.11-.15-.16-.31-.14-.49.02-.18.11-.32.25-.42.4-.26.82-.58,1.26-.97.44-.38.87-.79,1.28-1.22.41-.42.76-.82,1.03-1.18h-2.92c-.19,0-.35-.06-.46-.18s-.17-.27-.17-.45c0-.17.06-.32.17-.44s.27-.19.46-.19h3.48v-1.27h-.36c-1.07,0-1.81-.19-2.24-.56-.43-.37-.64-1.03-.64-1.96v-1.56c0-.94.21-1.6.64-1.96.42-.37,1.17-.55,2.24-.55h2.12c1.07,0,1.81.18,2.24.55s.64,1.02.64,1.96v1.56c0,.93-.21,1.58-.64,1.96s-1.17.56-2.24.56h-.37v1.27h3.84c.19,0,.34.06.45.19.11.12.16.27.16.44,0,.18-.05.33-.16.45-.11.12-.26.18-.45.18h-3.25c.27.35.62.73,1.03,1.14.41.41.85.8,1.3,1.17s.87.69,1.26.93c.16.1.25.25.27.43.02.19-.02.35-.14.5-.12.17-.29.26-.49.28s-.4-.03-.58-.14c-.54-.38-1.11-.85-1.69-1.4-.58-.55-1.1-1.11-1.56-1.67v4c0,.2-.07.37-.2.5-.14.13-.3.2-.49.2ZM32.67,22.54h1.84v-1.48h-.36c-.59,0-.98.09-1.18.26s-.3.52-.3,1.03v.19ZM34.15,25.19h.36v-1.45h-1.84v.17c0,.51.1.85.3,1.02s.59.25,1.18.25ZM35.9,22.54h1.85v-.19c0-.51-.1-.85-.3-1.03-.2-.18-.59-.26-1.18-.26h-.37v1.48ZM35.9,25.19h.37c.59,0,.98-.08,1.18-.25.2-.17.3-.51.3-1.02v-.17h-1.85v1.45Z"/>
        <path class="cls-6" d="M50.76,34.9c-.2,0-.38-.07-.53-.21-.15-.14-.22-.32-.22-.54v-6.53c-.21.18-.42.36-.63.53s-.4.33-.59.48c-.18.14-.38.19-.6.16s-.41-.13-.55-.31c-.12-.16-.17-.34-.14-.55s.14-.38.31-.5c.33-.24.69-.53,1.09-.87.4-.34.79-.7,1.19-1.09.4-.38.77-.77,1.11-1.15.35-.38.63-.73.86-1.04.12-.17.29-.26.48-.28.2-.02.38.04.55.16.17.11.27.27.29.48s-.03.4-.15.57c-.23.32-.49.65-.78.99-.29.34-.61.68-.94,1.02v7.94c0,.21-.07.39-.22.54s-.32.21-.53.21ZM49.21,23.66c-.2.14-.41.2-.62.2-.21,0-.39-.11-.55-.31-.12-.18-.16-.37-.12-.58.04-.2.15-.36.32-.46.36-.21.76-.48,1.2-.81.44-.32.86-.66,1.26-1.01s.73-.66,1-.94c.15-.16.33-.24.54-.24s.38.07.52.2c.16.15.24.32.25.53s-.07.38-.21.53c-.31.32-.67.65-1.08,1.01-.41.36-.84.7-1.27,1.03-.44.33-.84.61-1.22.85ZM53.39,34.76c-.25.08-.46.08-.64,0-.18-.08-.3-.23-.37-.43-.07-.2-.04-.39.08-.57s.29-.29.5-.33c1.39-.34,2.68-.89,3.86-1.65-.61-.59-1.12-1.22-1.51-1.89-.31.33-.62.65-.94.95-.32.31-.63.59-.93.85-.19.15-.39.22-.6.23-.21,0-.39-.08-.54-.25-.12-.14-.18-.31-.17-.51.01-.2.1-.37.27-.49.4-.29.8-.65,1.22-1.06.42-.41.82-.85,1.22-1.32.39-.46.74-.91,1.04-1.34-.51.04-.98.08-1.42.12-.44.03-.81.06-1.13.08-.21.01-.4-.04-.54-.16-.15-.12-.23-.29-.25-.5-.01-.18.05-.34.18-.48.13-.14.3-.21.5-.22.24-.01.52-.03.84-.04.32-.02.67-.04,1.03-.06.16-.17.34-.36.54-.57.2-.21.4-.44.62-.69-.25-.22-.54-.45-.87-.71s-.65-.5-.96-.75c-.31-.24-.58-.44-.79-.59-.15-.1-.24-.25-.29-.43-.04-.19-.01-.36.1-.52.12-.16.28-.26.47-.31.19-.05.37-.01.54.11.09.06.19.12.3.2.11.08.22.16.33.25.17-.2.35-.44.54-.7.19-.26.38-.52.56-.78.18-.26.33-.48.44-.66.11-.18.27-.29.46-.33.19-.04.38,0,.56.11.18.11.29.27.33.47.04.2,0,.38-.13.55-.23.32-.5.69-.82,1.1-.32.42-.61.78-.87,1.07.19.15.37.29.54.43s.33.27.48.4c.48-.56.94-1.1,1.38-1.64.44-.54.8-1,1.07-1.39.12-.17.29-.27.48-.31s.39.01.57.14c.16.11.25.27.28.47s-.02.38-.14.55c-.27.37-.62.82-1.05,1.33-.43.51-.89,1.03-1.37,1.56-.48.53-.94,1.02-1.39,1.47.59-.04,1.17-.09,1.73-.14.56-.04,1.07-.09,1.52-.14-.1-.12-.2-.24-.29-.35s-.17-.2-.24-.28c-.11-.14-.17-.3-.15-.49.01-.19.09-.35.24-.46.16-.12.33-.18.53-.17.19.01.36.09.49.24.21.22.46.48.73.8.27.32.54.63.79.95s.46.58.6.8c.12.18.17.37.14.56s-.13.35-.31.48c-.17.11-.36.16-.56.13-.2-.03-.37-.13-.49-.3-.07-.1-.15-.21-.25-.34-.1-.12-.2-.25-.3-.39-.45.04-1,.1-1.62.17-.63.07-1.28.13-1.95.19-.11.19-.24.39-.37.6-.13.2-.26.41-.4.61h1.94c.65,0,1.12.14,1.42.42.3.28.44.63.42,1.05-.02.41-.2.83-.54,1.25-.16.19-.32.38-.48.55s-.34.35-.52.52c.56.35,1.15.65,1.78.91.63.25,1.28.44,1.95.57.23.03.4.14.51.31s.14.37.08.59c-.06.23-.18.38-.37.47-.19.08-.42.1-.68.04-.79-.17-1.56-.43-2.31-.77s-1.45-.74-2.09-1.21c-.66.45-1.37.85-2.13,1.2s-1.57.63-2.42.86ZM57.97,30.93c.16-.15.31-.3.47-.45.15-.15.3-.31.43-.47.2-.26.27-.46.2-.61-.07-.15-.27-.22-.6-.22h-2.06c.41.63.92,1.22,1.55,1.75Z"/>
        <path class="cls-6" d="M79.44,34.96c-.21,0-.4-.07-.56-.22-.16-.15-.24-.34-.25-.58-.01-.2.05-.38.2-.54s.32-.24.54-.25c.48-.02.82-.07,1.05-.13.22-.06.37-.18.43-.35.07-.17.1-.42.1-.75v-1.39h-5.49c.09.02.18.08.25.17.23.21.49.47.78.76.29.29.54.56.73.78.16.18.23.38.21.59-.02.22-.12.4-.3.54-.18.15-.38.21-.6.2-.21-.02-.4-.12-.56-.3-.18-.23-.41-.49-.7-.8-.28-.31-.54-.57-.76-.78-.15-.15-.21-.32-.19-.52.02-.2.11-.37.26-.5.07-.07.15-.12.24-.15h-2.86c-.18,0-.34-.07-.47-.2-.13-.14-.2-.29-.2-.48s.06-.34.2-.48c.13-.14.29-.2.47-.2h8.98v-1.24h-9.57c-.17,0-.32-.06-.44-.2-.12-.13-.19-.29-.19-.47,0-.17.06-.32.19-.45.12-.13.27-.2.44-.2h6.41v-1.14h-4.56c-.17,0-.32-.07-.44-.2-.12-.13-.19-.28-.19-.45,0-.18.06-.33.19-.46s.27-.19.44-.19h4.56v-.46c0-.19.06-.36.17-.49-.17-.25-.16-.5.02-.77.36-.41.71-.91,1.05-1.5.34-.59.6-1.13.78-1.63.07-.2.2-.34.39-.41.19-.07.39-.07.58,0,.2.08.35.2.43.36.08.16.09.33,0,.53-.05.12-.1.25-.16.38-.06.13-.13.27-.2.42h4.59c.19,0,.35.06.46.18.11.12.17.27.17.45,0,.17-.06.32-.17.44-.11.12-.27.19-.46.19h-2.58c.07.17.14.34.2.5.07.16.12.31.17.45.06.18.05.35-.03.52-.07.16-.22.29-.43.37-.19.06-.38.05-.56-.02-.18-.07-.3-.19-.36-.37-.07-.19-.15-.43-.25-.71s-.2-.53-.29-.73h-1.14c-.15.24-.3.46-.45.67-.15.21-.3.41-.45.6-.01.01-.02.03-.03.05-.01.02-.03.04-.05.07.09.12.14.28.14.46v.46h4.66c.18,0,.33.06.45.19.12.12.18.28.18.46,0,.17-.06.32-.18.45-.12.13-.27.2-.45.2h-4.66v1.14h6.41c.17,0,.32.07.44.2.12.13.19.28.19.45,0,.18-.06.34-.19.47-.12.13-.27.2-.44.2h-3.23v1.24h2.67c.18,0,.33.07.46.2.12.14.19.29.19.48s-.06.34-.19.48c-.12.14-.28.2-.46.2h-2.67v1.7c0,.61-.09,1.1-.28,1.46-.19.36-.5.63-.94.79-.44.16-1.05.25-1.84.25ZM75.85,23.95c-.19.06-.38.05-.56-.02-.18-.07-.3-.19-.36-.37-.07-.19-.15-.43-.25-.71s-.2-.53-.29-.73h-1.02c-.18.27-.38.53-.59.77-.21.24-.41.47-.6.67-.14.17-.31.27-.51.31s-.4,0-.6-.13c-.16-.1-.25-.25-.28-.45s.01-.37.13-.52c.46-.43.9-.93,1.31-1.51s.74-1.14.99-1.68c.09-.21.23-.35.42-.42.19-.06.38-.05.57.04.19.08.33.21.4.38.07.18.06.36-.03.55-.06.11-.12.23-.19.35-.07.12-.14.24-.2.37h3.59c.19,0,.35.06.47.18.12.12.18.27.18.45,0,.17-.06.32-.18.44-.12.12-.28.19-.47.19h-1.85c.07.17.14.34.2.5.07.16.12.31.17.45.07.18.06.36-.02.53-.08.17-.22.29-.42.36Z"/>
        <path class="cls-6" d="M97.44,33.71c-.19.1-.39.12-.6.06s-.37-.19-.47-.38c-.1-.19-.12-.39-.05-.6.07-.21.2-.37.39-.47.82-.43,1.54-.96,2.17-1.58s1.14-1.31,1.53-2.07c.39-.75.63-1.53.72-2.32h-5.22c-.21,0-.4-.07-.54-.22-.15-.15-.22-.33-.22-.54s.07-.4.22-.54c.15-.15.33-.22.54-.22h11.27c.21,0,.4.07.54.22.15.15.22.33.22.54s-.07.4-.22.54c-.15.15-.33.22-.54.22h-4.52c-.09.99-.36,1.94-.82,2.87-.45.93-1.05,1.78-1.8,2.55-.75.77-1.61,1.42-2.6,1.94ZM97.9,22.86c-.22,0-.4-.07-.54-.22s-.22-.33-.22-.54.07-.38.22-.54c.15-.15.33-.23.54-.23h7.48c.2,0,.38.08.53.23.15.15.22.33.22.54,0,.21-.07.4-.22.54s-.32.22-.53.22h-7.48ZM108.63,24.53c-.15.09-.3.12-.47.08-.17-.04-.29-.13-.38-.28-.12-.21-.27-.44-.42-.67-.16-.23-.32-.44-.48-.64-.09-.12-.13-.26-.12-.41.01-.15.08-.27.2-.37.14-.1.28-.14.43-.11.15.03.29.1.4.23.15.15.32.35.51.61.19.26.36.49.51.7.09.15.12.31.08.48-.04.17-.13.3-.26.39ZM110.23,23.39c-.14.1-.29.14-.47.1s-.31-.12-.4-.27c-.14-.22-.29-.43-.45-.66-.17-.22-.33-.43-.48-.62-.1-.11-.15-.25-.14-.4,0-.15.07-.28.2-.38.12-.11.27-.16.42-.14.16.02.29.1.41.22.16.15.34.35.54.6.2.25.38.47.53.66.1.15.14.31.1.48s-.12.31-.25.41Z"/>
        <path class="cls-6" d="M125.51,33.96c-.21,0-.4-.08-.55-.23-.15-.15-.23-.34-.23-.55v-7.34c-.76.7-1.56,1.38-2.41,2.03-.85.65-1.69,1.23-2.53,1.74-.18.11-.38.14-.59.08s-.38-.18-.5-.36c-.11-.19-.14-.39-.08-.6.06-.21.18-.37.36-.48,1.11-.67,2.18-1.41,3.2-2.21,1.02-.8,1.96-1.65,2.82-2.55s1.6-1.79,2.21-2.69c.12-.18.29-.29.5-.33.21-.04.41,0,.59.13.18.12.29.29.33.51.04.22,0,.41-.13.59-.29.42-.63.85-1,1.28-.37.44-.76.88-1.18,1.32v8.87c0,.21-.08.4-.23.55s-.34.23-.57.23Z"/>
        <path class="cls-6" d="M145.93,33.99c-.2.08-.41.08-.61,0-.2-.07-.35-.21-.44-.4-.08-.19-.08-.39,0-.6.07-.21.21-.35.4-.43,1.37-.63,2.37-1.5,2.99-2.6.62-1.1.93-2.52.93-4.27h-3.01c.01.49.02.96.02,1.41s-.01.86-.03,1.22c-.01.22-.1.39-.26.54s-.35.21-.57.2c-.22-.01-.39-.1-.54-.26-.14-.16-.21-.35-.2-.57.02-.36.04-.76.04-1.19,0-.43,0-.88,0-1.34h-3.77c-.22,0-.4-.07-.54-.22-.15-.15-.22-.33-.22-.54s.07-.4.22-.54c.15-.15.33-.22.54-.22h3.71c-.01-.45-.04-.88-.08-1.29-.04-.41-.08-.76-.13-1.05-.03-.23.01-.43.14-.6.12-.18.29-.28.51-.31s.41.01.59.14c.18.12.28.29.31.51.06.33.1.72.14,1.18s.06.94.08,1.44h3.04c0-.53,0-1.05-.03-1.56s-.04-.95-.08-1.33c-.01-.21.05-.41.19-.58s.31-.26.53-.27c.23-.02.42.04.59.18.16.14.26.32.28.54.02.38.04.85.06,1.39.02.54.03,1.08.04,1.64h3.52c.22,0,.4.07.54.22.15.15.22.33.22.54s-.07.4-.22.54c-.15.15-.33.22-.54.22h-3.5c-.01,2.02-.43,3.73-1.25,5.14-.82,1.41-2.02,2.46-3.6,3.15Z"/>
        <path class="cls-6" d="M165.48,27.93c-.21,0-.4-.08-.55-.23-.15-.15-.23-.34-.23-.55,0-.23.08-.41.23-.56.15-.15.34-.22.55-.22h10.59c.22,0,.4.07.55.22.15.15.23.33.23.56,0,.21-.08.4-.23.55-.15.15-.34.23-.55.23h-10.59Z"/>
        <path class="cls-6" d="M198.32,32.7c-1.48.23-2.73.37-3.73.42s-1.83,0-2.47-.14c-.65-.14-1.17-.39-1.58-.74-.45-.38-.76-.89-.93-1.5-.17-.62-.25-1.29-.25-2.01v-6.92c0-.22.08-.4.24-.55.16-.15.35-.23.56-.23s.4.08.55.23.23.34.23.55v4.08c.97-.24,1.98-.51,3.02-.83,1.04-.31,1.98-.63,2.83-.94.2-.08.41-.07.6.02s.34.24.42.44.08.41,0,.6-.24.34-.45.42c-1,.34-2.05.67-3.16.98-1.11.31-2.19.59-3.25.84v1.31c0,.68.05,1.18.16,1.5.11.32.27.58.49.77.27.23.67.39,1.18.48s1.21.11,2.07.06,1.95-.18,3.24-.38c.22-.03.41.01.59.14.18.12.27.3.3.53.03.22-.01.41-.14.58-.12.17-.29.27-.51.31ZM200.07,24.71c-.12.11-.27.16-.44.14-.17-.02-.31-.09-.43-.21-.16-.19-.33-.39-.53-.59-.19-.2-.39-.39-.58-.56-.11-.1-.18-.23-.19-.38-.01-.15.04-.29.15-.4.12-.12.26-.18.42-.18.15,0,.3.06.43.16.16.12.36.3.6.52.24.22.44.42.61.6.12.12.18.27.16.45-.02.18-.09.33-.21.45ZM201.47,23.27c-.11.12-.26.18-.43.18-.18,0-.32-.07-.43-.2-.36-.4-.75-.76-1.16-1.1-.11-.1-.18-.23-.2-.38-.02-.15.02-.29.14-.4.12-.14.26-.2.42-.2s.3.05.43.14c.17.11.38.28.62.49.24.21.45.41.62.58.12.11.19.26.19.43s-.06.33-.19.45Z"/>
        <path class="cls-6" d="M211.41,32.94c-.19.09-.39.1-.6.03-.21-.07-.36-.21-.45-.4-.09-.19-.1-.39-.03-.6s.2-.36.39-.45c1.66-.79,3.14-1.78,4.46-2.95,1.32-1.17,2.38-2.46,3.17-3.85.5-.88.17-1.33-1-1.33h-4.79c-.21,0-.4-.08-.55-.24-.15-.16-.23-.35-.23-.56s.08-.4.23-.55c.15-.15.34-.23.55-.23h4.79c.91,0,1.6.16,2.08.48.48.32.75.75.8,1.31.05.55-.13,1.19-.54,1.9-.16.27-.33.55-.52.83-.19.28-.39.56-.6.84.54.43,1.1.92,1.68,1.45s1.12,1.06,1.63,1.57c.51.51.92.94,1.24,1.29.16.15.24.33.24.54s-.08.4-.24.56c-.16.15-.35.22-.56.22s-.4-.08-.56-.24c-.23-.23-.51-.52-.85-.88-.34-.36-.71-.74-1.12-1.14s-.82-.8-1.23-1.2c-.41-.4-.81-.75-1.18-1.07-.85.93-1.81,1.8-2.87,2.6s-2.18,1.49-3.33,2.06Z"/>
      </g>
      <path class="cls-4" d="M69.69,133.36c0,6.79-5.21,12.06-11.54,12.06-3.96,0-7.47-2.14-9.61-5.4l-29.53-44.48v39.96c0,5.53-4.3,9.93-9.5,9.93s-9.51-4.4-9.51-9.93v-65.97c0-6.66,5.09-12.06,11.43-12.06,3.96,0,7.47,2.26,9.61,5.53l29.64,44.23v-39.71c0-5.53,4.19-10.05,9.51-10.05s9.5,4.52,9.5,10.05v65.84Z"/>
      <path class="cls-4" d="M173.48,103.2c-2.6,0-4.41-.63-5.99-1.26-1.47-.63-2.71-1.26-4.64-1.26-1.81,0-3.51.63-3.51,2.39s1.7,2.64,3.96,3.77c3.05,1.38,6.23,2.26,9.96,4.4,6.22,3.52,8.25,9.17,8.25,14.83,0,10.68-8.71,19.35-22.73,19.35-4.64,0-9.62-.38-13.58-2.01-3.73-1.51-6.45-4.77-6.45-9.05s3.17-7.91,7.13-7.91c2.49,0,4.41,1.26,6.45,2.39,1.7,1.01,3.28,1.63,5.55,1.63,2.49,0,4.3-1.01,4.3-3.14,0-1.76-1.36-2.89-3.28-3.89-3.28-1.63-6.67-2.51-10.18-4.4-5.54-3.02-8.71-8.42-8.71-15.96,0-11.06,7.47-18.09,21.15-18.09,4.97,0,9.27.5,12.44,1.64,4.53,1.76,6.9,4.77,6.9,8.67,0,4.4-3.06,7.91-7.02,7.91Z"/>
      <path class="cls-3" d="M173.48,103.2c-2.6,0-4.41-.63-5.99-1.26-1.47-.63-2.71-1.26-4.64-1.26-1.81,0-3.51.63-3.51,2.39s1.7,2.64,3.96,3.77c3.05,1.38,6.23,2.26,9.96,4.4,6.22,3.52,8.25,9.17,8.25,14.83,0,10.68-8.71,19.35-22.73,19.35-4.64,0-9.62-.38-13.58-2.01-3.73-1.51-6.45-4.77-6.45-9.05s3.17-7.91,7.13-7.91c2.49,0,4.41,1.26,6.45,2.39,1.7,1.01,3.28,1.63,5.55,1.63,2.49,0,4.3-1.01,4.3-3.14,0-1.76-1.36-2.89-3.28-3.89-3.28-1.63-6.67-2.51-10.18-4.4-5.54-3.02-8.71-8.42-8.71-15.96,0-11.06,7.47-18.09,21.15-18.09,4.97,0,9.27.5,12.44,1.64,4.53,1.76,6.9,4.77,6.9,8.67,0,4.4-3.06,7.91-7.02,7.91Z"/>
      <g>
        <path class="cls-4" d="M118.67,65.07c-.41.62-1.18.73-1.89.73-.37,0-.7,0-1.04-.22-.37-.22-.7-.59-1.18-.81-.41-.22-1.04.07-1.48-.11-.44-.18-.74-.66-1.18-.84-.44-.15-.96-.18-1.37-.33-.52-.15-.96-.37-1.37-.48-.22.7,0,.73,0,1.5s.07.73.07,1.5-.26.73-.26,1.47.22.77.22,1.5c0,.55-.3,1.03-.67,1.39-.37.37-.85.81-1.41.81-.59,0-1.04-.48-1.41-.84s-.48-.81-.48-1.36c0-.7-.07-.7-.07-1.39,0-.66-.04-.66-.04-1.36s.07-.7.07-1.39c0-.66-.26-.66-.26-1.36s.15-.66-.07-1.32c-.33.29-.67.37-1,.66-.33.33-.56.77-.89,1.06s-.52.84-.85,1.14c-.37.29-1.07.15-1.41.4-.37.29-.59.73-.96,1.03-.37.26-.78.44-1.18.44-.63,0-1.33-.22-1.74-.77-.33-.44-.11-1.03-.04-1.54s.07-1.03.56-1.36c.37-.29.67-.81,1.07-1.14.41-.29.92-.48,1.33-.81.41-.33.67-.81,1.04-1.17.41-.33,1.11-.29,1.52-.66.37-.33.67-.77,1.07-1.14.37-.33.78-.66,1.15-1.03.37-.37.7-.81,1.04-1.14.41-.37.85-.66,1.22-.99.3-.29.44-.7.7-.95.26-.29.55-.59.81-.88-.78-.15-.81.11-1.59.11s-.78-.22-1.55-.22c-.81.04-.78.37-1.59.37s-.78-.11-1.55-.11-.78.15-1.55.15c-.59,0-1.07-.44-1.44-.81-.37-.37-.48-.84-.52-1.43,0-.55,0-1.14.37-1.5.37-.37.96-.62,1.55-.62.7,0,.7.18,1.41.18s.7-.26,1.44-.26c.7,0,.7-.07,1.41-.07,0,0,.7,0,1.41.37.7,0,.7-.04,1.44-.04.7,0,.7-.26,1.41-.26s.7-.11,1.41-.11.7.33,1.41.29c.7,0,.7-.07,1.41-.11.44,0,.78.22,1.11.4.3.22.63.44.81.81.15.4.37.84.33,1.21-.07.4-.48.7-.78.99,0,0-.3.51-1,1.21-.29.29-.59.77-1,1.21-.33.33-1.04.37-1.44.77-.33.37-.55.88-.96,1.25-.37.37-.59.84-1,1.21,0,0,.15-.07.15-.04,0,.22-.15.15,0,.37.37.11.7.33,1.29.51.44.15,1,.15,1.55.33.48.15.81.77,1.29.95.48.18,1,.37,1.48.55.48.22.96.37,1.41.62.48.22.96.44,1.37.7.48.29,1.04.59,1.15,1.1.11.51.04,1.17-.26,1.65ZM111.5,47.89c-.37.33-1.04.48-1.55.48-.07,0-.11-.07-.19-.11-.52-.04-1.07.11-1.59.04-.52-.04-1-.59-1.48-.7-.56-.07-1.15.33-1.67.22-.52-.15-1-.44-1.48-.59-.52-.18-1-.4-1.48-.62-.52-.22-.78-.66-1-1.17-.19-.48-.55-1.1-.33-1.61.22-.51.92-.7,1.41-.88.48-.22.93-.04,1.44.18.44.18,1,.4,1.55.55.52.15,1.15-.18,1.74-.07.52.07,1.04.18,1.59.26.52.07,1.04.55,1.59.62.55.04.92.15,1.26.55.33.4.44.77.41,1.32-.04.51.15,1.21-.22,1.54Z"/>
        <path class="cls-4" d="M154.56,68.3c-.41.33-1.04.11-1.48.11-.59,0-1.07-.15-1.48-.62-.3-.37-.89-.55-1.26-.95-.3-.37-.44-.92-.78-1.32-.33-.37-.59-.81-.96-1.17-.33-.37-.89-.55-1.26-.92-.33-.37-.37-1.03-.7-1.39-.37-.37-.85-.62-1.18-.95-.37-.37-.74-.51-1.11-.84-.3.4-.52.7-.81,1.06-.3.4-.78.7-1.07,1.06-.3.4-.41.95-.7,1.36-.3.37-.85.59-1.15.95-.33.4-.55.84-.85,1.25-.33.37-.44.92-.78,1.28-.3.4-.63.81-.92,1.17-.41.48-1.18.81-1.78.81-.44,0-.92-.4-1.29-.7-.44-.37-.7-.84-.74-1.39-.07-.51.15-.99.48-1.43.3-.37.59-.77.92-1.17.3-.37.56-.77.85-1.17.3-.37.44-.88.78-1.28.3-.37.63-.73.96-1.1.29-.4.85-.59,1.15-.99.3-.37.55-.81.85-1.17.29-.4.33-.99.63-1.39.29-.37.67-.7.96-1.1.3-.4.81-.62,1.11-1.03.29-.4.59-.81.85-1.21.26-.4.48-.84.78-1.25.26-.4.3-.95.56-1.36.26-.44.74-.73.96-1.14.26-.44.41-1.03.63-1.47-.7-.22-.74.11-1.48.11-.74.04-.74-.22-1.44-.18-.74,0-.74.55-1.44.59-.74.04-.74-.04-1.44,0-.74.04-.74-.07-1.44-.07-.74.04-.74,0-1.48,0q-.7.04-1.44.07c-.55,0-1.18-.18-1.55-.55-.37-.37-.59-.95-.59-1.54-.04-.55.26-1.06.63-1.43.33-.37.85-.59,1.41-.59.74-.04.74-.11,1.48-.15.78-.07.78.11,1.52.11.74-.04.74,0,1.52-.04.74,0,.74-.11,1.48-.15.74,0,.74-.18,1.48-.18.74-.04.78.22,1.52.22.74-.04.74-.4,1.48-.44.74-.04.74.4,1.52.37.74-.04.7-.4,1.44-.44.7-.04,1.22.62,1.63,1.17.41.59.37,1.1.11,1.72-.19.48-.3.95-.48,1.43-.22.44-.11,1.03-.33,1.46-.26.44-.74.73-1,1.17s-.3.99-.55,1.43c-.22.44-.52.84-.78,1.28s-.59.81-.89,1.21c-.26.44-.52.84-.81,1.25.37.33.59.77.93,1.1.37.33.85.55,1.18.92.33.33.55.81.89,1.17.33.37.7.66,1.04,1.03.33.37.7.7,1,1.06.33.37.52.84.81,1.21.33.37.96.51,1.26.84.33.4.7.73,1,1.1.37.44.37,1.14.3,1.65-.04.51-.19,1.21-.59,1.54Z"/>
        <path class="cls-4" d="M187.94,59.36c-.37.29-.7.44-1.22.44-.07,0-.22.4-.33.4-.74-.11-.59-.22-1.44-.37-.48-.04-.96-.4-1.48-.48s-1.04-.07-1.48-.15c-.85-.11-.74-.22-1.48-.33-.74-.11-.74.15-1.48.26,0,.37.04.55.04.95,0,.51-.22,1.06-.22,1.58,0,.55-.11,1.06-.11,1.61,0,.51.18,1.06.18,1.58-.04.51.04,1.06.04,1.58-.04.55-.33,1.06-.33,1.58-.04.55.07,1.17-.3,1.54-.37.33-1,.44-1.55.44h-.07c-.59-.04-1.22-.18-1.55-.55-.37-.4-.74-1.06-.7-1.61.04-.51.11-1.03.11-1.54.04-.51.18-1.03.22-1.54,0-.51-.15-1.03-.11-1.58,0-.51.11-1.03.11-1.54v-1.54c0-.48.37-.95.37-1.43v-1.43c0-.48-.44-.95-.44-1.43s.18-.95.18-1.43.19-.95.19-1.43c-.04-.48-.11-.95-.11-1.39-.04-.51-.18-.99-.18-1.43-.04-.51.15-.99.15-1.43-.04-.51-.18-.95-.18-1.43-.04-.51-.3-.95-.3-1.39,0-.59.37-1.1.74-1.46.33-.4.85-.37,1.44-.37.55,0,1.15-.18,1.55.18.37.37.7.95.74,1.5,0,.48-.22.99-.22,1.54.04.44.22.95.22,1.47s-.29,1.03-.29,1.54c.04.48.52.95.55,1.5,0,.48-.52.99-.48,1.5,0,.51.22,1.06.22,1.58.59.29.7-.04,1.41.07.67.11.67-.04,1.33.07.7.07.63.37,1.33.48.67.11.7-.26,1.37-.15.7.11.63.59,1.29.7.67.11.67-.04,1.37.04.56.07,1.04.26,1.33.7.33.4.56.95.45,1.5-.07.51-.48.77-.85,1.1Z"/>
      </g>
      <path class="cls-1" d="M115.36,108.36c-.23-2.01-.57-3.52-1.81-5.15-1.25-1.63-3.17-2.51-5.65-2.51-2.27,0-4.53.75-5.77,2.26-1,1.23-1.64,2.78-2.01,4.7,0,0,0,0,0,0"/>
      <path class="cls-5" d="M117.21,116.48c-1.16-3.66-1.85-8.13-1.85-8.13-.23-2.01-.57-3.51-1.81-5.15-1.25-1.63-3.17-2.51-5.66-2.51-2.26,0-4.52.75-5.77,2.26-1.01,1.23-1.64,2.78-2.01,4.7-1.51.16-4.08.3-5.68.71-1.19.31-.53.91-.08,1.22,1.09.73,2.77,1.89,4.9,2.68-.54,3.83-.59,5.69,0,8.36.57,2.77,1.72,4.88,3.37,6.33,1.95,1.73,4.82,2.77,8.1,2.77,2.94,0,4.98-.51,6.67-1.14,2.72-1,4.41-2.38,6.79-2.38,3.96,0,6.79,3.64,6.79,8.04,0,4.15-2.49,6.91-7.47,8.92-4.98,2.01-9.73,2.26-14.03,2.26-8.82,0-15.83-2.89-20.7-8.04-5.2-5.4-8.03-13.44-8.03-22.87,0-8.92,3.17-16.34,7.92-21.61,4.52-4.9,10.97-7.79,19.12-7.79,1.02,0,2.01.04,2.96.13.05,0,.26.01.31.02,8.39.82,13.43,3.48,17.43,7.92,5.1,5.67,6.43,12.2,6.43,17.38,0,6.16-3.21,9.98-8.65,9.98h-3.55c-6.04.07-15.03,1.02-17.15-1.18-1.94-2.03-.7-4.71,1.37-5.36,2.06-.66,6.95.5,10.28,2.48Z"/>
      <path class="cls-2" d="M100.12,107.65s0,0,0,0"/>
      <ellipse class="cls-5" cx="104.96" cy="107.65" rx="1.62" ry="2.25"/>
      <g>
        <path class="cls-4" d="M224.26,124.68c-1.81,0-3.28.63-4.41,1.51-1.58,1.13-2.94,2.27-4.64,2.27-1.81,0-3.17-1.26-3.17-5.41v-18.21c-.27.05-.55.08-.84.08-2.74,0-4.96-2.22-4.96-4.96s2.22-4.96,4.96-4.96,4.96,2.22,4.96,4.96c0,.8-.21,1.55-.55,2.22h3.79c.31,0,.61-.03.91-.08-.23-.57-.36-1.19-.36-1.84,0-2.74,2.22-4.96,4.96-4.96.48,0,.94.09,1.39.22.07-.45.12-.91.12-1.38,0-2.87-1.35-5.36-3.36-6.75-.43,2.31-2.44,4.06-4.87,4.06-2.74,0-4.96-2.22-4.96-4.96,0-.09.02-.18.03-.27h-1.21v-7.91c-.11,0-.21.03-.32.03-2.74,0-4.96-2.22-4.96-4.96,0-1.29.5-2.45,1.31-3.33-1.5-1.13-3.3-1.8-5.18-1.8-.97,0-1.89.19-2.76.49,1.67.8,2.84,2.49,2.84,4.47,0,2.74-2.22,4.96-4.96,4.96-1.67,0-3.15-.84-4.05-2.11-.14.68-.23,1.38-.23,2.11v8.04h-2.94c-3.96,0-7.02,3.52-7.02,7.92s3.06,8.04,7.02,8.04h2.94v22.62c0,11.06,5.32,20.61,17.87,20.61,3.96,0,8.15-.88,11.65-2.51,4.53-2.14,7.92-5.66,7.92-10.18s-2.83-8.05-6.9-8.05Z"/>
        <path class="cls-5" d="M219.95,100.27c0,.65.13,1.27.36,1.84,3.01-.47,5.45-3.24,5.99-6.58-.44-.13-.9-.22-1.39-.22-2.74,0-4.96,2.22-4.96,4.96Z"/>
        <path class="cls-5" d="M218.18,91.46c2.43,0,4.44-1.75,4.87-4.06-1.07-.74-2.32-1.17-3.65-1.17h-6.15c0,.09-.03.18-.03.27,0,2.74,2.22,4.96,4.96,4.96Z"/>
        <path class="cls-5" d="M211.72,78.36c.11,0,.22-.03.32-.03v-.13c0-3.39-1.61-6.34-3.98-8.13-.81.88-1.31,2.04-1.31,3.33,0,2.74,2.22,4.96,4.96,4.96Z"/>
        <path class="cls-5" d="M198,78.19c2.74,0,4.96-2.22,4.96-4.96,0-1.98-1.17-3.67-2.84-4.47-.67.24-1.32.54-1.92.93-2.14,1.38-3.71,3.67-4.25,6.4.9,1.27,2.37,2.11,4.05,2.11Z"/>
        <path class="cls-5" d="M211.2,95.01c-2.74,0-4.96,2.22-4.96,4.96s2.22,4.96,4.96,4.96c.29,0,.56-.04.84-.08v-2.65h3.57c.34-.67.55-1.42.55-2.22,0-2.74-2.22-4.96-4.96-4.96Z"/>
        <circle class="cls-5" cx="204.84" cy="86.7" r="4.96"/>
      </g>
    </g>
  </g>
</svg>